<svg class="rich-terminal" viewBox="0 0 994 635.5999999999999" xmlns="http://www.w3.org/2000/svg">
    <!-- Generated with Rich https://www.textualize.io -->
    <style>

    @font-face {
        font-family: "Fira Code";
        src: local("FiraCode-Regular"),
                url("https://cdnjs.cloudflare.com/ajax/libs/firacode/6.2.0/woff2/FiraCode-Regular.woff2") format("woff2"),
                url("https://cdnjs.cloudflare.com/ajax/libs/firacode/6.2.0/woff/FiraCode-Regular.woff") format("woff");
        font-style: normal;
        font-weight: 400;
    }
    @font-face {
        font-family: "Fira Code";
        src: local("FiraCode-Bold"),
                url("https://cdnjs.cloudflare.com/ajax/libs/firacode/6.2.0/woff2/FiraCode-Bold.woff2") format("woff2"),
                url("https://cdnjs.cloudflare.com/ajax/libs/firacode/6.2.0/woff/FiraCode-Bold.woff") format("woff");
        font-style: bold;
        font-weight: 700;
    }

    .terminal-2445646494-matrix {
        font-family: Fira Code, monospace;
        font-size: 20px;
        line-height: 24.4px;
        font-variant-east-asian: full-width;
    }

    .terminal-2445646494-title {
        font-size: 18px;
        font-weight: bold;
        font-family: arial;
    }

    .terminal-2445646494-r1 { fill: #e1e1e1 }
.terminal-2445646494-r2 { fill: #c5c8c6 }
.terminal-2445646494-r3 { fill: #c1ff87 }
.terminal-2445646494-r4 { fill: #5f87ff }
.terminal-2445646494-r5 { fill: #5cc9fd }
.terminal-2445646494-r6 { fill: #ffaff9 }
.terminal-2445646494-r7 { fill: #5cc9fd;font-style: italic; }
.terminal-2445646494-r8 { fill: #e2e2e4 }
.terminal-2445646494-r9 { fill: #bdd8ff;font-weight: bold }
.terminal-2445646494-r10 { fill: #bdd8ff }
.terminal-2445646494-r11 { fill: #7aa2f7 }
.terminal-2445646494-r12 { fill: #232336 }
.terminal-2445646494-r13 { fill: #1c1c2c }
.terminal-2445646494-r14 { fill: #414767 }
.terminal-2445646494-r15 { fill: #cbcbd0 }
.terminal-2445646494-r16 { fill: #7aa2f7;font-weight: bold }
.terminal-2445646494-r17 { fill: #2e2e38 }
.terminal-2445646494-r18 { fill: #232336;font-weight: bold }
    </style>

    <defs>
    <clipPath id="terminal-2445646494-clip-terminal">
      <rect x="0" y="0" width="975.0" height="584.5999999999999" />
    </clipPath>
    <clipPath id="terminal-2445646494-line-0">
    <rect x="0" y="1.5" width="976" height="24.65"/>
            </clipPath>
<clipPath id="terminal-2445646494-line-1">
    <rect x="0" y="25.9" width="976" height="24.65"/>
            </clipPath>
<clipPath id="terminal-2445646494-line-2">
    <rect x="0" y="50.3" width="976" height="24.65"/>
            </clipPath>
<clipPath id="terminal-2445646494-line-3">
    <rect x="0" y="74.7" width="976" height="24.65"/>
            </clipPath>
<clipPath id="terminal-2445646494-line-4">
    <rect x="0" y="99.1" width="976" height="24.65"/>
            </clipPath>
<clipPath id="terminal-2445646494-line-5">
    <rect x="0" y="123.5" width="976" height="24.65"/>
            </clipPath>
<clipPath id="terminal-2445646494-line-6">
    <rect x="0" y="147.9" width="976" height="24.65"/>
            </clipPath>
<clipPath id="terminal-2445646494-line-7">
    <rect x="0" y="172.3" width="976" height="24.65"/>
            </clipPath>
<clipPath id="terminal-2445646494-line-8">
    <rect x="0" y="196.7" width="976" height="24.65"/>
            </clipPath>
<clipPath id="terminal-2445646494-line-9">
    <rect x="0" y="221.1" width="976" height="24.65"/>
            </clipPath>
<clipPath id="terminal-2445646494-line-10">
    <rect x="0" y="245.5" width="976" height="24.65"/>
            </clipPath>
<clipPath id="terminal-2445646494-line-11">
    <rect x="0" y="269.9" width="976" height="24.65"/>
            </clipPath>
<clipPath id="terminal-2445646494-line-12">
    <rect x="0" y="294.3" width="976" height="24.65"/>
            </clipPath>
<clipPath id="terminal-2445646494-line-13">
    <rect x="0" y="318.7" width="976" height="24.65"/>
            </clipPath>
<clipPath id="terminal-2445646494-line-14">
    <rect x="0" y="343.1" width="976" height="24.65"/>
            </clipPath>
<clipPath id="terminal-2445646494-line-15">
    <rect x="0" y="367.5" width="976" height="24.65"/>
            </clipPath>
<clipPath id="terminal-2445646494-line-16">
    <rect x="0" y="391.9" width="976" height="24.65"/>
            </clipPath>
<clipPath id="terminal-2445646494-line-17">
    <rect x="0" y="416.3" width="976" height="24.65"/>
            </clipPath>
<clipPath id="terminal-2445646494-line-18">
    <rect x="0" y="440.7" width="976" height="24.65"/>
            </clipPath>
<clipPath id="terminal-2445646494-line-19">
    <rect x="0" y="465.1" width="976" height="24.65"/>
            </clipPath>
<clipPath id="terminal-2445646494-line-20">
    <rect x="0" y="489.5" width="976" height="24.65"/>
            </clipPath>
<clipPath id="terminal-2445646494-line-21">
    <rect x="0" y="513.9" width="976" height="24.65"/>
            </clipPath>
<clipPath id="terminal-2445646494-line-22">
    <rect x="0" y="538.3" width="976" height="24.65"/>
            </clipPath>
    </defs>

    <rect fill="#292929" stroke="rgba(255,255,255,0.35)" stroke-width="1" x="1" y="1" width="992" height="633.6" rx="8"/><text class="terminal-2445646494-title" fill="#c5c8c6" text-anchor="middle" x="496" y="27">BaseApp</text>
            <g transform="translate(26,22)">
            <circle cx="0" cy="0" r="7" fill="#ff5f57"/>
            <circle cx="22" cy="0" r="7" fill="#febc2e"/>
            <circle cx="44" cy="0" r="7" fill="#28c840"/>
            </g>
        
    <g transform="translate(9, 41)" clip-path="url(#terminal-2445646494-clip-terminal)">
    <rect fill="#1e1e1e" x="0" y="1.5" width="976" height="24.65" shape-rendering="crispEdges"/><rect fill="#1e1e1e" x="0" y="25.9" width="97.6" height="24.65" shape-rendering="crispEdges"/><rect fill="#1e1e1e" x="97.6" y="25.9" width="780.8" height="24.65" shape-rendering="crispEdges"/><rect fill="#1e1e1e" x="878.4" y="25.9" width="97.6" height="24.65" shape-rendering="crispEdges"/><rect fill="#1e1e1e" x="0" y="50.3" width="97.6" height="24.65" shape-rendering="crispEdges"/><rect fill="#1e1e1e" x="97.6" y="50.3" width="768.6" height="24.65" shape-rendering="crispEdges"/><rect fill="#1e1e1e" x="866.2" y="50.3" width="12.2" height="24.65" shape-rendering="crispEdges"/><rect fill="#1e1e1e" x="878.4" y="50.3" width="97.6" height="24.65" shape-rendering="crispEdges"/><rect fill="#1e1e1e" x="0" y="74.7" width="97.6" height="24.65" shape-rendering="crispEdges"/><rect fill="#1e1e1e" x="97.6" y="74.7" width="768.6" height="24.65" shape-rendering="crispEdges"/><rect fill="#1e1e1e" x="866.2" y="74.7" width="12.2" height="24.65" shape-rendering="crispEdges"/><rect fill="#1e1e1e" x="878.4" y="74.7" width="97.6" height="24.65" shape-rendering="crispEdges"/><rect fill="#1e1e1e" x="0" y="99.1" width="97.6" height="24.65" shape-rendering="crispEdges"/><rect fill="#1e1e1e" x="97.6" y="99.1" width="768.6" height="24.65" shape-rendering="crispEdges"/><rect fill="#1e1e1e" x="866.2" y="99.1" width="12.2" height="24.65" shape-rendering="crispEdges"/><rect fill="#1e1e1e" x="878.4" y="99.1" width="97.6" height="24.65" shape-rendering="crispEdges"/><rect fill="#1e1e1e" x="0" y="123.5" width="97.6" height="24.65" shape-rendering="crispEdges"/><rect fill="#1e1e1e" x="97.6" y="123.5" width="780.8" height="24.65" shape-rendering="crispEdges"/><rect fill="#1e1e1e" x="878.4" y="123.5" width="97.6" height="24.65" shape-rendering="crispEdges"/><rect fill="#1e1e1e" x="0" y="147.9" width="97.6" height="24.65" shape-rendering="crispEdges"/><rect fill="#1e1e1e" x="97.6" y="147.9" width="780.8" height="24.65" shape-rendering="crispEdges"/><rect fill="#1e1e1e" x="878.4" y="147.9" width="97.6" height="24.65" shape-rendering="crispEdges"/><rect fill="#1e1e1e" x="0" y="172.3" width="97.6" height="24.65" shape-rendering="crispEdges"/><rect fill="#232336" x="97.6" y="172.3" width="12.2" height="24.65" shape-rendering="crispEdges"/><rect fill="#232336" x="109.8" y="172.3" width="48.8" height="24.65" shape-rendering="crispEdges"/><rect fill="#232336" x="158.6" y="172.3" width="207.4" height="24.65" shape-rendering="crispEdges"/><rect fill="#232336" x="366" y="172.3" width="73.2" height="24.65" shape-rendering="crispEdges"/><rect fill="#232336" x="439.2" y="172.3" width="48.8" height="24.65" shape-rendering="crispEdges"/><rect fill="#232336" x="488" y="172.3" width="73.2" height="24.65" shape-rendering="crispEdges"/><rect fill="#232336" x="561.2" y="172.3" width="48.8" height="24.65" shape-rendering="crispEdges"/><rect fill="#232336" x="610" y="172.3" width="97.6" height="24.65" shape-rendering="crispEdges"/><rect fill="#232336" x="707.6" y="172.3" width="12.2" height="24.65" shape-rendering="crispEdges"/><rect fill="#232336" x="719.8" y="172.3" width="85.4" height="24.65" shape-rendering="crispEdges"/><rect fill="#232336" x="805.2" y="172.3" width="12.2" height="24.65" shape-rendering="crispEdges"/><rect fill="#232336" x="817.4" y="172.3" width="48.8" height="24.65" shape-rendering="crispEdges"/><rect fill="#232336" x="866.2" y="172.3" width="12.2" height="24.65" shape-rendering="crispEdges"/><rect fill="#1e1e1e" x="878.4" y="172.3" width="97.6" height="24.65" shape-rendering="crispEdges"/><rect fill="#1e1e1e" x="0" y="196.7" width="97.6" height="24.65" shape-rendering="crispEdges"/><rect fill="#232336" x="97.6" y="196.7" width="12.2" height="24.65" shape-rendering="crispEdges"/><rect fill="#232336" x="109.8" y="196.7" width="12.2" height="24.65" shape-rendering="crispEdges"/><rect fill="#232336" x="122" y="196.7" width="207.4" height="24.65" shape-rendering="crispEdges"/><rect fill="#333338" x="329.4" y="196.7" width="207.4" height="24.65" shape-rendering="crispEdges"/><rect fill="#333338" x="536.8" y="196.7" width="97.6" height="24.65" shape-rendering="crispEdges"/><rect fill="#2f2f37" x="634.4" y="196.7" width="0" height="24.65" shape-rendering="crispEdges"/><rect fill="#232336" x="634.4" y="196.7" width="219.6" height="24.65" shape-rendering="crispEdges"/><rect fill="#232336" x="854" y="196.7" width="12.2" height="24.65" shape-rendering="crispEdges"/><rect fill="#232336" x="866.2" y="196.7" width="12.2" height="24.65" shape-rendering="crispEdges"/><rect fill="#1e1e1e" x="878.4" y="196.7" width="97.6" height="24.65" shape-rendering="crispEdges"/><rect fill="#1e1e1e" x="0" y="221.1" width="97.6" height="24.65" shape-rendering="crispEdges"/><rect fill="#232336" x="97.6" y="221.1" width="12.2" height="24.65" shape-rendering="crispEdges"/><rect fill="#232336" x="109.8" y="221.1" width="12.2" height="24.65" shape-rendering="crispEdges"/><rect fill="#232336" x="122" y="221.1" width="207.4" height="24.65" shape-rendering="crispEdges"/><rect fill="#354172" x="329.4" y="221.1" width="207.4" height="24.65" shape-rendering="crispEdges"/><rect fill="#354172" x="536.8" y="221.1" width="97.6" height="24.65" shape-rendering="crispEdges"/><rect fill="#26273c" x="634.4" y="221.1" width="0" height="24.65" shape-rendering="crispEdges"/><rect fill="#232336" x="634.4" y="221.1" width="219.6" height="24.65" shape-rendering="crispEdges"/><rect fill="#232336" x="854" y="221.1" width="12.2" height="24.65" shape-rendering="crispEdges"/><rect fill="#232336" x="866.2" y="221.1" width="12.2" height="24.65" shape-rendering="crispEdges"/><rect fill="#1e1e1e" x="878.4" y="221.1" width="97.6" height="24.65" shape-rendering="crispEdges"/><rect fill="#1e1e1e" x="0" y="245.5" width="97.6" height="24.65" shape-rendering="crispEdges"/><rect fill="#232336" x="97.6" y="245.5" width="12.2" height="24.65" shape-rendering="crispEdges"/><rect fill="#232336" x="109.8" y="245.5" width="12.2" height="24.65" shape-rendering="crispEdges"/><rect fill="#232336" x="122" y="245.5" width="207.4" height="24.65" shape-rendering="crispEdges"/><rect fill="#354172" x="329.4" y="245.5" width="207.4" height="24.65" shape-rendering="crispEdges"/><rect fill="#354172" x="536.8" y="245.5" width="97.6" height="24.65" shape-rendering="crispEdges"/><rect fill="#26273c" x="634.4" y="245.5" width="0" height="24.65" shape-rendering="crispEdges"/><rect fill="#232336" x="634.4" y="245.5" width="219.6" height="24.65" shape-rendering="crispEdges"/><rect fill="#232336" x="854" y="245.5" width="12.2" height="24.65" shape-rendering="crispEdges"/><rect fill="#232336" x="866.2" y="245.5" width="12.2" height="24.65" shape-rendering="crispEdges"/><rect fill="#1e1e1e" x="878.4" y="245.5" width="97.6" height="24.65" shape-rendering="crispEdges"/><rect fill="#1e1e1e" x="0" y="269.9" width="97.6" height="24.65" shape-rendering="crispEdges"/><rect fill="#232336" x="97.6" y="269.9" width="12.2" height="24.65" shape-rendering="crispEdges"/><rect fill="#232336" x="109.8" y="269.9" width="12.2" height="24.65" shape-rendering="crispEdges"/><rect fill="#232336" x="122" y="269.9" width="207.4" height="24.65" shape-rendering="crispEdges"/><rect fill="#354172" x="329.4" y="269.9" width="207.4" height="24.65" shape-rendering="crispEdges"/><rect fill="#354172" x="536.8" y="269.9" width="97.6" height="24.65" shape-rendering="crispEdges"/><rect fill="#26273c" x="634.4" y="269.9" width="0" height="24.65" shape-rendering="crispEdges"/><rect fill="#232336" x="634.4" y="269.9" width="219.6" height="24.65" shape-rendering="crispEdges"/><rect fill="#232336" x="854" y="269.9" width="12.2" height="24.65" shape-rendering="crispEdges"/><rect fill="#232336" x="866.2" y="269.9" width="12.2" height="24.65" shape-rendering="crispEdges"/><rect fill="#1e1e1e" x="878.4" y="269.9" width="97.6" height="24.65" shape-rendering="crispEdges"/><rect fill="#1e1e1e" x="0" y="294.3" width="97.6" height="24.65" shape-rendering="crispEdges"/><rect fill="#232336" x="97.6" y="294.3" width="12.2" height="24.65" shape-rendering="crispEdges"/><rect fill="#232336" x="109.8" y="294.3" width="756.4" height="24.65" shape-rendering="crispEdges"/><rect fill="#232336" x="866.2" y="294.3" width="12.2" height="24.65" shape-rendering="crispEdges"/><rect fill="#1e1e1e" x="878.4" y="294.3" width="97.6" height="24.65" shape-rendering="crispEdges"/><rect fill="#1e1e1e" x="0" y="318.7" width="97.6" height="24.65" shape-rendering="crispEdges"/><rect fill="#1e1e1e" x="97.6" y="318.7" width="780.8" height="24.65" shape-rendering="crispEdges"/><rect fill="#1e1e1e" x="878.4" y="318.7" width="97.6" height="24.65" shape-rendering="crispEdges"/><rect fill="#1e1e1e" x="0" y="343.1" width="97.6" height="24.65" shape-rendering="crispEdges"/><rect fill="#1e1e1e" x="97.6" y="343.1" width="780.8" height="24.65" shape-rendering="crispEdges"/><rect fill="#1e1e1e" x="878.4" y="343.1" width="97.6" height="24.65" shape-rendering="crispEdges"/><rect fill="#1e1e1e" x="0" y="367.5" width="97.6" height="24.65" shape-rendering="crispEdges"/><rect fill="#232336" x="97.6" y="367.5" width="12.2" height="24.65" shape-rendering="crispEdges"/><rect fill="#232336" x="109.8" y="367.5" width="122" height="24.65" shape-rendering="crispEdges"/><rect fill="#232336" x="231.8" y="367.5" width="12.2" height="24.65" shape-rendering="crispEdges"/><rect fill="#232336" x="244" y="367.5" width="73.2" height="24.65" shape-rendering="crispEdges"/><rect fill="#232336" x="317.2" y="367.5" width="36.6" height="24.65" shape-rendering="crispEdges"/><rect fill="#232336" x="353.8" y="367.5" width="36.6" height="24.65" shape-rendering="crispEdges"/><rect fill="#232336" x="390.4" y="367.5" width="12.2" height="24.65" shape-rendering="crispEdges"/><rect fill="#232336" x="402.6" y="367.5" width="85.4" height="24.65" shape-rendering="crispEdges"/><rect fill="#232336" x="488" y="367.5" width="256.2" height="24.65" shape-rendering="crispEdges"/><rect fill="#232336" x="744.2" y="367.5" width="122" height="24.65" shape-rendering="crispEdges"/><rect fill="#232336" x="866.2" y="367.5" width="12.2" height="24.65" shape-rendering="crispEdges"/><rect fill="#1e1e1e" x="878.4" y="367.5" width="97.6" height="24.65" shape-rendering="crispEdges"/><rect fill="#1e1e1e" x="0" y="391.9" width="97.6" height="24.65" shape-rendering="crispEdges"/><rect fill="#232336" x="97.6" y="391.9" width="12.2" height="24.65" shape-rendering="crispEdges"/><rect fill="#232336" x="109.8" y="391.9" width="756.4" height="24.65" shape-rendering="crispEdges"/><rect fill="#232336" x="866.2" y="391.9" width="12.2" height="24.65" shape-rendering="crispEdges"/><rect fill="#1e1e1e" x="878.4" y="391.9" width="97.6" height="24.65" shape-rendering="crispEdges"/><rect fill="#1e1e1e" x="0" y="416.3" width="97.6" height="24.65" shape-rendering="crispEdges"/><rect fill="#232336" x="97.6" y="416.3" width="12.2" height="24.65" shape-rendering="crispEdges"/><rect fill="#232336" x="109.8" y="416.3" width="146.4" height="24.65" shape-rendering="crispEdges"/><rect fill="#1c1c2c" x="256.2" y="416.3" width="12.2" height="24.65" shape-rendering="crispEdges"/><rect fill="#2f3146" x="268.4" y="416.3" width="244" height="24.65" shape-rendering="crispEdges"/><rect fill="#232336" x="512.4" y="416.3" width="12.2" height="24.65" shape-rendering="crispEdges"/><rect fill="#303049" x="524.6" y="416.3" width="195.2" height="24.65" shape-rendering="crispEdges"/><rect fill="#232336" x="719.8" y="416.3" width="146.4" height="24.65" shape-rendering="crispEdges"/><rect fill="#232336" x="866.2" y="416.3" width="12.2" height="24.65" shape-rendering="crispEdges"/><rect fill="#1e1e1e" x="878.4" y="416.3" width="97.6" height="24.65" shape-rendering="crispEdges"/><rect fill="#1e1e1e" x="0" y="440.7" width="97.6" height="24.65" shape-rendering="crispEdges"/><rect fill="#232336" x="97.6" y="440.7" width="12.2" height="24.65" shape-rendering="crispEdges"/><rect fill="#232336" x="109.8" y="440.7" width="146.4" height="24.65" shape-rendering="crispEdges"/><rect fill="#1c1c2c" x="256.2" y="440.7" width="12.2" height="24.65" shape-rendering="crispEdges"/><rect fill="#2f3146" x="268.4" y="440.7" width="24.4" height="24.65" shape-rendering="crispEdges"/><rect fill="#2f3146" x="292.8" y="440.7" width="195.2" height="24.65" shape-rendering="crispEdges"/><rect fill="#2f3146" x="488" y="440.7" width="24.4" height="24.65" shape-rendering="crispEdges"/><rect fill="#232336" x="512.4" y="440.7" width="12.2" height="24.65" shape-rendering="crispEdges"/><rect fill="#303049" x="524.6" y="440.7" width="12.2" height="24.65" shape-rendering="crispEdges"/><rect fill="#303049" x="536.8" y="440.7" width="170.8" height="24.65" shape-rendering="crispEdges"/><rect fill="#303049" x="707.6" y="440.7" width="12.2" height="24.65" shape-rendering="crispEdges"/><rect fill="#232336" x="719.8" y="440.7" width="146.4" height="24.65" shape-rendering="crispEdges"/><rect fill="#232336" x="866.2" y="440.7" width="12.2" height="24.65" shape-rendering="crispEdges"/><rect fill="#1e1e1e" x="878.4" y="440.7" width="97.6" height="24.65" shape-rendering="crispEdges"/><rect fill="#1e1e1e" x="0" y="465.1" width="97.6" height="24.65" shape-rendering="crispEdges"/><rect fill="#232336" x="97.6" y="465.1" width="12.2" height="24.65" shape-rendering="crispEdges"/><rect fill="#232336" x="109.8" y="465.1" width="146.4" height="24.65" shape-rendering="crispEdges"/><rect fill="#1c1c2c" x="256.2" y="465.1" width="12.2" height="24.65" shape-rendering="crispEdges"/><rect fill="#2f3146" x="268.4" y="465.1" width="244" height="24.65" shape-rendering="crispEdges"/><rect fill="#232336" x="512.4" y="465.1" width="12.2" height="24.65" shape-rendering="crispEdges"/><rect fill="#303049" x="524.6" y="465.1" width="195.2" height="24.65" shape-rendering="crispEdges"/><rect fill="#232336" x="719.8" y="465.1" width="146.4" height="24.65" shape-rendering="crispEdges"/><rect fill="#232336" x="866.2" y="465.1" width="12.2" height="24.65" shape-rendering="crispEdges"/><rect fill="#1e1e1e" x="878.4" y="465.1" width="97.6" height="24.65" shape-rendering="crispEdges"/><rect fill="#1e1e1e" x="0" y="489.5" width="97.6" height="24.65" shape-rendering="crispEdges"/><rect fill="#232336" x="97.6" y="489.5" width="12.2" height="24.65" shape-rendering="crispEdges"/><rect fill="#232336" x="109.8" y="489.5" width="756.4" height="24.65" shape-rendering="crispEdges"/><rect fill="#232336" x="866.2" y="489.5" width="12.2" height="24.65" shape-rendering="crispEdges"/><rect fill="#1e1e1e" x="878.4" y="489.5" width="97.6" height="24.65" shape-rendering="crispEdges"/><rect fill="#1e1e1e" x="0" y="513.9" width="976" height="24.65" shape-rendering="crispEdges"/><rect fill="#1e1e1e" x="0" y="538.3" width="976" height="24.65" shape-rendering="crispEdges"/><rect fill="#7aa2f7" x="0" y="562.7" width="36.6" height="24.65" shape-rendering="crispEdges"/><rect fill="#202029" x="36.6" y="562.7" width="73.2" height="24.65" shape-rendering="crispEdges"/><rect fill="#7aa2f7" x="109.8" y="562.7" width="36.6" height="24.65" shape-rendering="crispEdges"/><rect fill="#202029" x="146.4" y="562.7" width="97.6" height="24.65" shape-rendering="crispEdges"/><rect fill="#7aa2f7" x="244" y="562.7" width="36.6" height="24.65" shape-rendering="crispEdges"/><rect fill="#202029" x="280.6" y="562.7" width="183" height="24.65" shape-rendering="crispEdges"/><rect fill="#7aa2f7" x="463.6" y="562.7" width="48.8" height="24.65" shape-rendering="crispEdges"/><rect fill="#202029" x="512.4" y="562.7" width="85.4" height="24.65" shape-rendering="crispEdges"/><rect fill="#7aa2f7" x="597.8" y="562.7" width="36.6" height="24.65" shape-rendering="crispEdges"/><rect fill="#202029" x="634.4" y="562.7" width="158.6" height="24.65" shape-rendering="crispEdges"/><rect fill="#1d1d1d" x="793" y="562.7" width="183" height="24.65" shape-rendering="crispEdges"/>
    <g class="terminal-2445646494-matrix">
    <text class="terminal-2445646494-r2" x="976" y="20" textLength="12.2" clip-path="url(#terminal-2445646494-line-0)">
</text><text class="terminal-2445646494-r2" x="976" y="44.4" textLength="12.2" clip-path="url(#terminal-2445646494-line-1)">
</text><text class="terminal-2445646494-r3" x="97.6" y="68.8" textLength="768.6" clip-path="url(#terminal-2445646494-line-2)">&#160;&#160;&#160;&#160;&#160;&#160;&#160;&#160;&#160;&#160;&#160;&#160;&#160;&#160;&#160;&#160;&#160;&#160;&#160;&#160;&#160;_&#160;&#160;&#160;&#160;&#160;&#160;&#160;_&#160;&#160;&#160;&#160;___&#160;&#160;&#160;&#160;&#160;&#160;&#160;&#160;&#160;&#160;&#160;&#160;_&#160;&#160;&#160;&#160;&#160;&#160;&#160;_&#160;&#160;&#160;&#160;&#160;</text><text class="terminal-2445646494-r2" x="976" y="68.8" textLength="12.2" clip-path="url(#terminal-2445646494-line-2)">
</text><text class="terminal-2445646494-r3" x="97.6" y="93.2" textLength="768.6" clip-path="url(#terminal-2445646494-line-3)">&#160;___&#160;_&#160;__&#160;___&#160;&#160;&#160;___&#160;|&#160;|&#160;&#160;&#160;&#160;&#160;|&#160;|&#160;_(&#160;_&#160;)&#160;___&#160;&#160;&#160;&#160;&#160;&#160;|&#160;|&#160;__&#160;_|&#160;|__&#160;&#160;</text><text class="terminal-2445646494-r2" x="976" y="93.2" textLength="12.2" clip-path="url(#terminal-2445646494-line-3)">
</text><text class="terminal-2445646494-r3" x="97.6" y="117.6" textLength="768.6" clip-path="url(#terminal-2445646494-line-4)">/&#160;__|&#160;&#x27;_&#160;`&#160;_&#160;\&#160;/&#160;_&#160;\|&#160;|_____|&#160;|/&#160;/&#160;_&#160;\/&#160;__|_____|&#160;|/&#160;_`&#160;|&#160;&#x27;_&#160;\&#160;</text><text class="terminal-2445646494-r2" x="976" y="117.6" textLength="12.2" clip-path="url(#terminal-2445646494-line-4)">
</text><text class="terminal-2445646494-r2" x="976" y="142" textLength="12.2" clip-path="url(#terminal-2445646494-line-5)">
</text><text class="terminal-2445646494-r2" x="976" y="166.4" textLength="12.2" clip-path="url(#terminal-2445646494-line-6)">
</text><text class="terminal-2445646494-r4" x="97.6" y="190.8" textLength="12.2" clip-path="url(#terminal-2445646494-line-7)">╭</text><text class="terminal-2445646494-r4" x="109.8" y="190.8" textLength="48.8" clip-path="url(#terminal-2445646494-line-7)">────</text><text class="terminal-2445646494-r5" x="158.6" y="190.8" textLength="207.4" clip-path="url(#terminal-2445646494-line-7)">&#160;Select&#160;a&#160;row&#160;to&#160;</text><text class="terminal-2445646494-r6" x="366" y="190.8" textLength="73.2" clip-path="url(#terminal-2445646494-line-7)">modify</text><text class="terminal-2445646494-r5" x="439.2" y="190.8" textLength="48.8" clip-path="url(#terminal-2445646494-line-7)">&#160;or&#160;</text><text class="terminal-2445646494-r6" x="488" y="190.8" textLength="73.2" clip-path="url(#terminal-2445646494-line-7)">delete</text><text class="terminal-2445646494-r5" x="561.2" y="190.8" textLength="48.8" clip-path="url(#terminal-2445646494-line-7)">&#160;an&#160;</text><text class="terminal-2445646494-r7" x="610" y="190.8" textLength="97.6" clip-path="url(#terminal-2445646494-line-7)">existing</text><text class="terminal-2445646494-r3" x="719.8" y="190.8" textLength="85.4" clip-path="url(#terminal-2445646494-line-7)">cluster</text><text class="terminal-2445646494-r4" x="817.4" y="190.8" textLength="48.8" clip-path="url(#terminal-2445646494-line-7)">────</text><text class="terminal-2445646494-r4" x="866.2" y="190.8" textLength="12.2" clip-path="url(#terminal-2445646494-line-7)">╮</text><text class="terminal-2445646494-r2" x="976" y="190.8" textLength="12.2" clip-path="url(#terminal-2445646494-line-7)">
</text><text class="terminal-2445646494-r4" x="97.6" y="215.2" textLength="12.2" clip-path="url(#terminal-2445646494-line-8)">│</text><text class="terminal-2445646494-r9" x="329.4" y="215.2" textLength="207.4" clip-path="url(#terminal-2445646494-line-8)">&#160;&#160;&#160;&#160;&#160;Cluster&#160;&#160;&#160;&#160;&#160;</text><text class="terminal-2445646494-r9" x="536.8" y="215.2" textLength="97.6" clip-path="url(#terminal-2445646494-line-8)">&#160;Distro&#160;</text><text class="terminal-2445646494-r4" x="866.2" y="215.2" textLength="12.2" clip-path="url(#terminal-2445646494-line-8)">│</text><text class="terminal-2445646494-r2" x="976" y="215.2" textLength="12.2" clip-path="url(#terminal-2445646494-line-8)">
</text><text class="terminal-2445646494-r4" x="97.6" y="239.6" textLength="12.2" clip-path="url(#terminal-2445646494-line-9)">│</text><text class="terminal-2445646494-r4" x="866.2" y="239.6" textLength="12.2" clip-path="url(#terminal-2445646494-line-9)">│</text><text class="terminal-2445646494-r2" x="976" y="239.6" textLength="12.2" clip-path="url(#terminal-2445646494-line-9)">
</text><text class="terminal-2445646494-r4" x="97.6" y="264" textLength="12.2" clip-path="url(#terminal-2445646494-line-10)">│</text><text class="terminal-2445646494-r5" x="329.4" y="264" textLength="207.4" clip-path="url(#terminal-2445646494-line-10)">&#160;k3s-nice-hoglet&#160;</text><text class="terminal-2445646494-r5" x="536.8" y="264" textLength="97.6" clip-path="url(#terminal-2445646494-line-10)">&#160;&#160;k3s&#160;&#160;&#160;</text><text class="terminal-2445646494-r4" x="866.2" y="264" textLength="12.2" clip-path="url(#terminal-2445646494-line-10)">│</text><text class="terminal-2445646494-r2" x="976" y="264" textLength="12.2" clip-path="url(#terminal-2445646494-line-10)">
</text><text class="terminal-2445646494-r4" x="97.6" y="288.4" textLength="12.2" clip-path="url(#terminal-2445646494-line-11)">│</text><text class="terminal-2445646494-r4" x="866.2" y="288.4" textLength="12.2" clip-path="url(#terminal-2445646494-line-11)">│</text><text class="terminal-2445646494-r2" x="976" y="288.4" textLength="12.2" clip-path="url(#terminal-2445646494-line-11)">
</text><text class="terminal-2445646494-r4" x="97.6" y="312.8" textLength="12.2" clip-path="url(#terminal-2445646494-line-12)">╰</text><text class="terminal-2445646494-r4" x="109.8" y="312.8" textLength="756.4" clip-path="url(#terminal-2445646494-line-12)">──────────────────────────────────────────────────────────────</text><text class="terminal-2445646494-r4" x="866.2" y="312.8" textLength="12.2" clip-path="url(#terminal-2445646494-line-12)">╯</text><text class="terminal-2445646494-r2" x="976" y="312.8" textLength="12.2" clip-path="url(#terminal-2445646494-line-12)">
</text><text class="terminal-2445646494-r2" x="976" y="337.2" textLength="12.2" clip-path="url(#terminal-2445646494-line-13)">
</text><text class="terminal-2445646494-r2" x="976" y="361.6" textLength="12.2" clip-path="url(#terminal-2445646494-line-14)">
</text><text class="terminal-2445646494-r4" x="97.6" y="386" textLength="12.2" clip-path="url(#terminal-2445646494-line-15)">╭</text><text class="terminal-2445646494-r4" x="109.8" y="386" textLength="122" clip-path="url(#terminal-2445646494-line-15)">──────────</text><text class="terminal-2445646494-r6" x="244" y="386" textLength="73.2" clip-path="url(#terminal-2445646494-line-15)">Create</text><text class="terminal-2445646494-r5" x="317.2" y="386" textLength="36.6" clip-path="url(#terminal-2445646494-line-15)">&#160;a&#160;</text><text class="terminal-2445646494-r7" x="353.8" y="386" textLength="36.6" clip-path="url(#terminal-2445646494-line-15)">new</text><text class="terminal-2445646494-r3" x="402.6" y="386" textLength="85.4" clip-path="url(#terminal-2445646494-line-15)">cluster</text><text class="terminal-2445646494-r5" x="488" y="386" textLength="256.2" clip-path="url(#terminal-2445646494-line-15)">&#160;with&#160;the&#160;name&#160;below&#160;</text><text class="terminal-2445646494-r4" x="744.2" y="386" textLength="122" clip-path="url(#terminal-2445646494-line-15)">──────────</text><text class="terminal-2445646494-r4" x="866.2" y="386" textLength="12.2" clip-path="url(#terminal-2445646494-line-15)">╮</text><text class="terminal-2445646494-r2" x="976" y="386" textLength="12.2" clip-path="url(#terminal-2445646494-line-15)">
</text><text class="terminal-2445646494-r4" x="97.6" y="410.4" textLength="12.2" clip-path="url(#terminal-2445646494-line-16)">│</text><text class="terminal-2445646494-r4" x="866.2" y="410.4" textLength="12.2" clip-path="url(#terminal-2445646494-line-16)">│</text><text class="terminal-2445646494-r2" x="976" y="410.4" textLength="12.2" clip-path="url(#terminal-2445646494-line-16)">
</text><text class="terminal-2445646494-r4" x="97.6" y="434.8" textLength="12.2" clip-path="url(#terminal-2445646494-line-17)">│</text><text class="terminal-2445646494-r12" x="256.2" y="434.8" textLength="12.2" clip-path="url(#terminal-2445646494-line-17)">▊</text><text class="terminal-2445646494-r13" x="268.4" y="434.8" textLength="244" clip-path="url(#terminal-2445646494-line-17)">▔▔▔▔▔▔▔▔▔▔▔▔▔▔▔▔▔▔▔▔</text><text class="terminal-2445646494-r13" x="512.4" y="434.8" textLength="12.2" clip-path="url(#terminal-2445646494-line-17)">▎</text><text class="terminal-2445646494-r14" x="524.6" y="434.8" textLength="195.2" clip-path="url(#terminal-2445646494-line-17)">▔▔▔▔▔▔▔▔▔▔▔▔▔▔▔▔</text><text class="terminal-2445646494-r4" x="866.2" y="434.8" textLength="12.2" clip-path="url(#terminal-2445646494-line-17)">│</text><text class="terminal-2445646494-r2" x="976" y="434.8" textLength="12.2" clip-path="url(#terminal-2445646494-line-17)">
</text><text class="terminal-2445646494-r4" x="97.6" y="459.2" textLength="12.2" clip-path="url(#terminal-2445646494-line-18)">│</text><text class="terminal-2445646494-r12" x="256.2" y="459.2" textLength="12.2" clip-path="url(#terminal-2445646494-line-18)">▊</text><text class="terminal-2445646494-r15" x="292.8" y="459.2" textLength="195.2" clip-path="url(#terminal-2445646494-line-18)">vriendelijke-kit</text><text class="terminal-2445646494-r13" x="512.4" y="459.2" textLength="12.2" clip-path="url(#terminal-2445646494-line-18)">▎</text><text class="terminal-2445646494-r16" x="536.8" y="459.2" textLength="158.6" clip-path="url(#terminal-2445646494-line-18)">✨&#160;New&#160;Cluster</text><text class="terminal-2445646494-r4" x="866.2" y="459.2" textLength="12.2" clip-path="url(#terminal-2445646494-line-18)">│</text><text class="terminal-2445646494-r2" x="976" y="459.2" textLength="12.2" clip-path="url(#terminal-2445646494-line-18)">
</text><text class="terminal-2445646494-r4" x="97.6" y="483.6" textLength="12.2" clip-path="url(#terminal-2445646494-line-19)">│</text><text class="terminal-2445646494-r12" x="256.2" y="483.6" textLength="12.2" clip-path="url(#terminal-2445646494-line-19)">▊</text><text class="terminal-2445646494-r13" x="268.4" y="483.6" textLength="244" clip-path="url(#terminal-2445646494-line-19)">▁▁▁▁▁▁▁▁▁▁▁▁▁▁▁▁▁▁▁▁</text><text class="terminal-2445646494-r13" x="512.4" y="483.6" textLength="12.2" clip-path="url(#terminal-2445646494-line-19)">▎</text><text class="terminal-2445646494-r17" x="524.6" y="483.6" textLength="195.2" clip-path="url(#terminal-2445646494-line-19)">▁▁▁▁▁▁▁▁▁▁▁▁▁▁▁▁</text><text class="terminal-2445646494-r4" x="866.2" y="483.6" textLength="12.2" clip-path="url(#terminal-2445646494-line-19)">│</text><text class="terminal-2445646494-r2" x="976" y="483.6" textLength="12.2" clip-path="url(#terminal-2445646494-line-19)">
</text><text class="terminal-2445646494-r4" x="97.6" y="508" textLength="12.2" clip-path="url(#terminal-2445646494-line-20)">╰</text><text class="terminal-2445646494-r4" x="109.8" y="508" textLength="756.4" clip-path="url(#terminal-2445646494-line-20)">──────────────────────────────────────────────────────────────</text><text class="terminal-2445646494-r4" x="866.2" y="508" textLength="12.2" clip-path="url(#terminal-2445646494-line-20)">╯</text><text class="terminal-2445646494-r2" x="976" y="508" textLength="12.2" clip-path="url(#terminal-2445646494-line-20)">
</text><text class="terminal-2445646494-r2" x="976" y="532.4" textLength="12.2" clip-path="url(#terminal-2445646494-line-21)">
</text><text class="terminal-2445646494-r2" x="976" y="556.8" textLength="12.2" clip-path="url(#terminal-2445646494-line-22)">
</text><text class="terminal-2445646494-r18" x="0" y="581.2" textLength="36.6" clip-path="url(#terminal-2445646494-line-23)">&#160;?&#160;</text><text class="terminal-2445646494-r11" x="36.6" y="581.2" textLength="73.2" clip-path="url(#terminal-2445646494-line-23)">&#160;Help&#160;</text><text class="terminal-2445646494-r18" x="109.8" y="581.2" textLength="36.6" clip-path="url(#terminal-2445646494-line-23)">&#160;c&#160;</text><text class="terminal-2445646494-r11" x="146.4" y="581.2" textLength="97.6" clip-path="url(#terminal-2445646494-line-23)">&#160;Config&#160;</text><text class="terminal-2445646494-r18" x="244" y="581.2" textLength="36.6" clip-path="url(#terminal-2445646494-line-23)">&#160;f&#160;</text><text class="terminal-2445646494-r11" x="280.6" y="581.2" textLength="183" clip-path="url(#terminal-2445646494-line-23)">&#160;Toggle&#160;footer&#160;</text><text class="terminal-2445646494-r18" x="463.6" y="581.2" textLength="48.8" clip-path="url(#terminal-2445646494-line-23)">&#160;f5&#160;</text><text class="terminal-2445646494-r11" x="512.4" y="581.2" textLength="85.4" clip-path="url(#terminal-2445646494-line-23)">&#160;Speak&#160;</text><text class="terminal-2445646494-r18" x="597.8" y="581.2" textLength="36.6" clip-path="url(#terminal-2445646494-line-23)">&#160;n&#160;</text><text class="terminal-2445646494-r11" x="634.4" y="581.2" textLength="158.6" clip-path="url(#terminal-2445646494-line-23)">&#160;New&#160;Cluster&#160;</text>
    </g>
    </g>
</svg>
