<svg class="rich-terminal" viewBox="0 0 982 562.4" xmlns="http://www.w3.org/2000/svg">
    <!-- Generated with Rich https://www.textualize.io -->
    <style>

    @font-face {
        font-family: "Fira Code";
        src: local("FiraCode-Regular"),
                url("https://cdnjs.cloudflare.com/ajax/libs/firacode/6.2.0/woff2/FiraCode-Regular.woff2") format("woff2"),
                url("https://cdnjs.cloudflare.com/ajax/libs/firacode/6.2.0/woff/FiraCode-Regular.woff") format("woff");
        font-style: normal;
        font-weight: 400;
    }
    @font-face {
        font-family: "Fira Code";
        src: local("FiraCode-Bold"),
                url("https://cdnjs.cloudflare.com/ajax/libs/firacode/6.2.0/woff2/FiraCode-Bold.woff2") format("woff2"),
                url("https://cdnjs.cloudflare.com/ajax/libs/firacode/6.2.0/woff/FiraCode-Bold.woff") format("woff");
        font-style: bold;
        font-weight: 700;
    }

    .terminal-763461908-matrix {
        font-family: Fira Code, monospace;
        font-size: 20px;
        line-height: 24.4px;
        font-variant-east-asian: full-width;
    }

    .terminal-763461908-title {
        font-size: 18px;
        font-weight: bold;
        font-family: arial;
    }

    .terminal-763461908-r1 { fill: #e1e1e1 }
.terminal-763461908-r2 { fill: #c5c8c6 }
.terminal-763461908-r3 { fill: #c1ff87 }
.terminal-763461908-r4 { fill: #5f87ff }
.terminal-763461908-r5 { fill: #5cc9fd }
.terminal-763461908-r6 { fill: #ffaff9 }
.terminal-763461908-r7 { fill: #5cc9fd;font-style: italic; }
.terminal-763461908-r8 { fill: #232336 }
.terminal-763461908-r9 { fill: #80bb4d }
.terminal-763461908-r10 { fill: #414767 }
.terminal-763461908-r11 { fill: #cbcbd0 }
.terminal-763461908-r12 { fill: #7aa2f7;font-weight: bold }
.terminal-763461908-r13 { fill: #2e2e38 }
    </style>

    <defs>
    <clipPath id="terminal-763461908-clip-terminal">
      <rect x="0" y="0" width="962.8" height="511.4" />
    </clipPath>
    <clipPath id="terminal-763461908-line-0">
    <rect x="0" y="1.5" width="963.8" height="24.65"/>
            </clipPath>
<clipPath id="terminal-763461908-line-1">
    <rect x="0" y="25.9" width="963.8" height="24.65"/>
            </clipPath>
<clipPath id="terminal-763461908-line-2">
    <rect x="0" y="50.3" width="963.8" height="24.65"/>
            </clipPath>
<clipPath id="terminal-763461908-line-3">
    <rect x="0" y="74.7" width="963.8" height="24.65"/>
            </clipPath>
<clipPath id="terminal-763461908-line-4">
    <rect x="0" y="99.1" width="963.8" height="24.65"/>
            </clipPath>
<clipPath id="terminal-763461908-line-5">
    <rect x="0" y="123.5" width="963.8" height="24.65"/>
            </clipPath>
<clipPath id="terminal-763461908-line-6">
    <rect x="0" y="147.9" width="963.8" height="24.65"/>
            </clipPath>
<clipPath id="terminal-763461908-line-7">
    <rect x="0" y="172.3" width="963.8" height="24.65"/>
            </clipPath>
<clipPath id="terminal-763461908-line-8">
    <rect x="0" y="196.7" width="963.8" height="24.65"/>
            </clipPath>
<clipPath id="terminal-763461908-line-9">
    <rect x="0" y="221.1" width="963.8" height="24.65"/>
            </clipPath>
<clipPath id="terminal-763461908-line-10">
    <rect x="0" y="245.5" width="963.8" height="24.65"/>
            </clipPath>
<clipPath id="terminal-763461908-line-11">
    <rect x="0" y="269.9" width="963.8" height="24.65"/>
            </clipPath>
<clipPath id="terminal-763461908-line-12">
    <rect x="0" y="294.3" width="963.8" height="24.65"/>
            </clipPath>
<clipPath id="terminal-763461908-line-13">
    <rect x="0" y="318.7" width="963.8" height="24.65"/>
            </clipPath>
<clipPath id="terminal-763461908-line-14">
    <rect x="0" y="343.1" width="963.8" height="24.65"/>
            </clipPath>
<clipPath id="terminal-763461908-line-15">
    <rect x="0" y="367.5" width="963.8" height="24.65"/>
            </clipPath>
<clipPath id="terminal-763461908-line-16">
    <rect x="0" y="391.9" width="963.8" height="24.65"/>
            </clipPath>
<clipPath id="terminal-763461908-line-17">
    <rect x="0" y="416.3" width="963.8" height="24.65"/>
            </clipPath>
<clipPath id="terminal-763461908-line-18">
    <rect x="0" y="440.7" width="963.8" height="24.65"/>
            </clipPath>
<clipPath id="terminal-763461908-line-19">
    <rect x="0" y="465.1" width="963.8" height="24.65"/>
            </clipPath>
    </defs>

    <rect fill="#292929" stroke="rgba(255,255,255,0.35)" stroke-width="1" x="1" y="1" width="980" height="560.4" rx="8"/><text class="terminal-763461908-title" fill="#c5c8c6" text-anchor="middle" x="490" y="27">BaseApp</text>
            <g transform="translate(26,22)">
            <circle cx="0" cy="0" r="7" fill="#ff5f57"/>
            <circle cx="22" cy="0" r="7" fill="#febc2e"/>
            <circle cx="44" cy="0" r="7" fill="#28c840"/>
            </g>
        
    <g transform="translate(9, 41)" clip-path="url(#terminal-763461908-clip-terminal)">
    <rect fill="#1e1e1e" x="0" y="1.5" width="963.8" height="24.65" shape-rendering="crispEdges"/><rect fill="#1e1e1e" x="0" y="25.9" width="97.6" height="24.65" shape-rendering="crispEdges"/><rect fill="#1e1e1e" x="97.6" y="25.9" width="768.6" height="24.65" shape-rendering="crispEdges"/><rect fill="#1e1e1e" x="866.2" y="25.9" width="97.6" height="24.65" shape-rendering="crispEdges"/><rect fill="#1e1e1e" x="0" y="50.3" width="97.6" height="24.65" shape-rendering="crispEdges"/><rect fill="#1e1e1e" x="97.6" y="50.3" width="0" height="24.65" shape-rendering="crispEdges"/><rect fill="#1e1e1e" x="97.6" y="50.3" width="768.6" height="24.65" shape-rendering="crispEdges"/><rect fill="#1e1e1e" x="866.2" y="50.3" width="97.6" height="24.65" shape-rendering="crispEdges"/><rect fill="#1e1e1e" x="0" y="74.7" width="97.6" height="24.65" shape-rendering="crispEdges"/><rect fill="#1e1e1e" x="97.6" y="74.7" width="0" height="24.65" shape-rendering="crispEdges"/><rect fill="#1e1e1e" x="97.6" y="74.7" width="768.6" height="24.65" shape-rendering="crispEdges"/><rect fill="#1e1e1e" x="866.2" y="74.7" width="97.6" height="24.65" shape-rendering="crispEdges"/><rect fill="#1e1e1e" x="0" y="99.1" width="97.6" height="24.65" shape-rendering="crispEdges"/><rect fill="#1e1e1e" x="97.6" y="99.1" width="0" height="24.65" shape-rendering="crispEdges"/><rect fill="#1e1e1e" x="97.6" y="99.1" width="768.6" height="24.65" shape-rendering="crispEdges"/><rect fill="#1e1e1e" x="866.2" y="99.1" width="97.6" height="24.65" shape-rendering="crispEdges"/><rect fill="#1e1e1e" x="0" y="123.5" width="97.6" height="24.65" shape-rendering="crispEdges"/><rect fill="#1e1e1e" x="97.6" y="123.5" width="0" height="24.65" shape-rendering="crispEdges"/><rect fill="#1e1e1e" x="97.6" y="123.5" width="768.6" height="24.65" shape-rendering="crispEdges"/><rect fill="#1e1e1e" x="866.2" y="123.5" width="97.6" height="24.65" shape-rendering="crispEdges"/><rect fill="#1e1e1e" x="0" y="147.9" width="97.6" height="24.65" shape-rendering="crispEdges"/><rect fill="#1e1e1e" x="97.6" y="147.9" width="0" height="24.65" shape-rendering="crispEdges"/><rect fill="#1e1e1e" x="97.6" y="147.9" width="768.6" height="24.65" shape-rendering="crispEdges"/><rect fill="#1e1e1e" x="866.2" y="147.9" width="97.6" height="24.65" shape-rendering="crispEdges"/><rect fill="#1e1e1e" x="0" y="172.3" width="97.6" height="24.65" shape-rendering="crispEdges"/><rect fill="#1e1e1e" x="97.6" y="172.3" width="0" height="24.65" shape-rendering="crispEdges"/><rect fill="#1e1e1e" x="97.6" y="172.3" width="768.6" height="24.65" shape-rendering="crispEdges"/><rect fill="#1e1e1e" x="866.2" y="172.3" width="97.6" height="24.65" shape-rendering="crispEdges"/><rect fill="#1e1e1e" x="0" y="196.7" width="97.6" height="24.65" shape-rendering="crispEdges"/><rect fill="#1e1e1e" x="97.6" y="196.7" width="0" height="24.65" shape-rendering="crispEdges"/><rect fill="#1e1e1e" x="97.6" y="196.7" width="768.6" height="24.65" shape-rendering="crispEdges"/><rect fill="#1e1e1e" x="866.2" y="196.7" width="97.6" height="24.65" shape-rendering="crispEdges"/><rect fill="#1e1e1e" x="0" y="221.1" width="97.6" height="24.65" shape-rendering="crispEdges"/><rect fill="#1e1e1e" x="97.6" y="221.1" width="378.2" height="24.65" shape-rendering="crispEdges"/><rect fill="#1e1e1e" x="475.8" y="221.1" width="0" height="24.65" shape-rendering="crispEdges"/><rect fill="#1e1e1e" x="475.8" y="221.1" width="390.4" height="24.65" shape-rendering="crispEdges"/><rect fill="#1e1e1e" x="866.2" y="221.1" width="97.6" height="24.65" shape-rendering="crispEdges"/><rect fill="#1e1e1e" x="0" y="245.5" width="97.6" height="24.65" shape-rendering="crispEdges"/><rect fill="#232336" x="97.6" y="245.5" width="12.2" height="24.65" shape-rendering="crispEdges"/><rect fill="#232336" x="109.8" y="245.5" width="109.8" height="24.65" shape-rendering="crispEdges"/><rect fill="#232336" x="219.6" y="245.5" width="12.2" height="24.65" shape-rendering="crispEdges"/><rect fill="#232336" x="231.8" y="245.5" width="73.2" height="24.65" shape-rendering="crispEdges"/><rect fill="#232336" x="305" y="245.5" width="36.6" height="24.65" shape-rendering="crispEdges"/><rect fill="#232336" x="341.6" y="245.5" width="36.6" height="24.65" shape-rendering="crispEdges"/><rect fill="#232336" x="378.2" y="245.5" width="12.2" height="24.65" shape-rendering="crispEdges"/><rect fill="#232336" x="390.4" y="245.5" width="85.4" height="24.65" shape-rendering="crispEdges"/><rect fill="#232336" x="475.8" y="245.5" width="256.2" height="24.65" shape-rendering="crispEdges"/><rect fill="#232336" x="732" y="245.5" width="122" height="24.65" shape-rendering="crispEdges"/><rect fill="#232336" x="854" y="245.5" width="12.2" height="24.65" shape-rendering="crispEdges"/><rect fill="#1e1e1e" x="866.2" y="245.5" width="97.6" height="24.65" shape-rendering="crispEdges"/><rect fill="#1e1e1e" x="0" y="269.9" width="97.6" height="24.65" shape-rendering="crispEdges"/><rect fill="#232336" x="97.6" y="269.9" width="12.2" height="24.65" shape-rendering="crispEdges"/><rect fill="#232336" x="109.8" y="269.9" width="744.2" height="24.65" shape-rendering="crispEdges"/><rect fill="#232336" x="854" y="269.9" width="12.2" height="24.65" shape-rendering="crispEdges"/><rect fill="#1e1e1e" x="866.2" y="269.9" width="97.6" height="24.65" shape-rendering="crispEdges"/><rect fill="#1e1e1e" x="0" y="294.3" width="97.6" height="24.65" shape-rendering="crispEdges"/><rect fill="#232336" x="97.6" y="294.3" width="12.2" height="24.65" shape-rendering="crispEdges"/><rect fill="#232336" x="109.8" y="294.3" width="744.2" height="24.65" shape-rendering="crispEdges"/><rect fill="#232336" x="854" y="294.3" width="12.2" height="24.65" shape-rendering="crispEdges"/><rect fill="#1e1e1e" x="866.2" y="294.3" width="97.6" height="24.65" shape-rendering="crispEdges"/><rect fill="#1e1e1e" x="0" y="318.7" width="97.6" height="24.65" shape-rendering="crispEdges"/><rect fill="#232336" x="97.6" y="318.7" width="12.2" height="24.65" shape-rendering="crispEdges"/><rect fill="#232336" x="109.8" y="318.7" width="146.4" height="24.65" shape-rendering="crispEdges"/><rect fill="#80bb4d" x="256.2" y="318.7" width="12.2" height="24.65" shape-rendering="crispEdges"/><rect fill="#2f3146" x="268.4" y="318.7" width="231.8" height="24.65" shape-rendering="crispEdges"/><rect fill="#232336" x="500.2" y="318.7" width="12.2" height="24.65" shape-rendering="crispEdges"/><rect fill="#303049" x="512.4" y="318.7" width="195.2" height="24.65" shape-rendering="crispEdges"/><rect fill="#232336" x="707.6" y="318.7" width="146.4" height="24.65" shape-rendering="crispEdges"/><rect fill="#232336" x="854" y="318.7" width="12.2" height="24.65" shape-rendering="crispEdges"/><rect fill="#1e1e1e" x="866.2" y="318.7" width="97.6" height="24.65" shape-rendering="crispEdges"/><rect fill="#1e1e1e" x="0" y="343.1" width="97.6" height="24.65" shape-rendering="crispEdges"/><rect fill="#232336" x="97.6" y="343.1" width="12.2" height="24.65" shape-rendering="crispEdges"/><rect fill="#232336" x="109.8" y="343.1" width="146.4" height="24.65" shape-rendering="crispEdges"/><rect fill="#80bb4d" x="256.2" y="343.1" width="12.2" height="24.65" shape-rendering="crispEdges"/><rect fill="#2f3146" x="268.4" y="343.1" width="24.4" height="24.65" shape-rendering="crispEdges"/><rect fill="#2f3146" x="292.8" y="343.1" width="158.6" height="24.65" shape-rendering="crispEdges"/><rect fill="#2f3146" x="451.4" y="343.1" width="24.4" height="24.65" shape-rendering="crispEdges"/><rect fill="#2f3146" x="475.8" y="343.1" width="24.4" height="24.65" shape-rendering="crispEdges"/><rect fill="#232336" x="500.2" y="343.1" width="12.2" height="24.65" shape-rendering="crispEdges"/><rect fill="#303049" x="512.4" y="343.1" width="0" height="24.65" shape-rendering="crispEdges"/><rect fill="#303049" x="512.4" y="343.1" width="195.2" height="24.65" shape-rendering="crispEdges"/><rect fill="#232336" x="707.6" y="343.1" width="146.4" height="24.65" shape-rendering="crispEdges"/><rect fill="#232336" x="854" y="343.1" width="12.2" height="24.65" shape-rendering="crispEdges"/><rect fill="#1e1e1e" x="866.2" y="343.1" width="97.6" height="24.65" shape-rendering="crispEdges"/><rect fill="#1e1e1e" x="0" y="367.5" width="97.6" height="24.65" shape-rendering="crispEdges"/><rect fill="#232336" x="97.6" y="367.5" width="12.2" height="24.65" shape-rendering="crispEdges"/><rect fill="#232336" x="109.8" y="367.5" width="146.4" height="24.65" shape-rendering="crispEdges"/><rect fill="#80bb4d" x="256.2" y="367.5" width="12.2" height="24.65" shape-rendering="crispEdges"/><rect fill="#2f3146" x="268.4" y="367.5" width="231.8" height="24.65" shape-rendering="crispEdges"/><rect fill="#232336" x="500.2" y="367.5" width="12.2" height="24.65" shape-rendering="crispEdges"/><rect fill="#303049" x="512.4" y="367.5" width="195.2" height="24.65" shape-rendering="crispEdges"/><rect fill="#232336" x="707.6" y="367.5" width="146.4" height="24.65" shape-rendering="crispEdges"/><rect fill="#232336" x="854" y="367.5" width="12.2" height="24.65" shape-rendering="crispEdges"/><rect fill="#1e1e1e" x="866.2" y="367.5" width="97.6" height="24.65" shape-rendering="crispEdges"/><rect fill="#1e1e1e" x="0" y="391.9" width="97.6" height="24.65" shape-rendering="crispEdges"/><rect fill="#232336" x="97.6" y="391.9" width="12.2" height="24.65" shape-rendering="crispEdges"/><rect fill="#232336" x="109.8" y="391.9" width="744.2" height="24.65" shape-rendering="crispEdges"/><rect fill="#232336" x="854" y="391.9" width="12.2" height="24.65" shape-rendering="crispEdges"/><rect fill="#1e1e1e" x="866.2" y="391.9" width="97.6" height="24.65" shape-rendering="crispEdges"/><rect fill="#1e1e1e" x="0" y="416.3" width="97.6" height="24.65" shape-rendering="crispEdges"/><rect fill="#232336" x="97.6" y="416.3" width="12.2" height="24.65" shape-rendering="crispEdges"/><rect fill="#232336" x="109.8" y="416.3" width="744.2" height="24.65" shape-rendering="crispEdges"/><rect fill="#232336" x="854" y="416.3" width="12.2" height="24.65" shape-rendering="crispEdges"/><rect fill="#1e1e1e" x="866.2" y="416.3" width="97.6" height="24.65" shape-rendering="crispEdges"/><rect fill="#1e1e1e" x="0" y="440.7" width="97.6" height="24.65" shape-rendering="crispEdges"/><rect fill="#1e1e1e" x="97.6" y="440.7" width="768.6" height="24.65" shape-rendering="crispEdges"/><rect fill="#1e1e1e" x="866.2" y="440.7" width="97.6" height="24.65" shape-rendering="crispEdges"/><rect fill="#1e1e1e" x="0" y="465.1" width="963.8" height="24.65" shape-rendering="crispEdges"/><rect fill="#1e1e1e" x="0" y="489.5" width="963.8" height="24.65" shape-rendering="crispEdges"/>
    <g class="terminal-763461908-matrix">
    <text class="terminal-763461908-r2" x="963.8" y="20" textLength="12.2" clip-path="url(#terminal-763461908-line-0)">
</text><text class="terminal-763461908-r2" x="963.8" y="44.4" textLength="12.2" clip-path="url(#terminal-763461908-line-1)">
</text><text class="terminal-763461908-r3" x="97.6" y="68.8" textLength="768.6" clip-path="url(#terminal-763461908-line-2)">&#160;&#160;&#160;&#160;&#160;&#160;&#160;&#160;&#160;&#160;&#160;&#160;&#160;&#160;&#160;&#160;&#160;&#160;&#160;&#160;&#160;_&#160;&#160;&#160;&#160;&#160;&#160;&#160;_&#160;&#160;&#160;&#160;___&#160;&#160;&#160;&#160;&#160;&#160;&#160;&#160;&#160;&#160;&#160;&#160;_&#160;&#160;&#160;&#160;&#160;&#160;&#160;_&#160;&#160;&#160;&#160;&#160;</text><text class="terminal-763461908-r2" x="963.8" y="68.8" textLength="12.2" clip-path="url(#terminal-763461908-line-2)">
</text><text class="terminal-763461908-r3" x="97.6" y="93.2" textLength="768.6" clip-path="url(#terminal-763461908-line-3)">&#160;___&#160;_&#160;__&#160;___&#160;&#160;&#160;___&#160;|&#160;|&#160;&#160;&#160;&#160;&#160;|&#160;|&#160;_(&#160;_&#160;)&#160;___&#160;&#160;&#160;&#160;&#160;&#160;|&#160;|&#160;__&#160;_|&#160;|__&#160;&#160;</text><text class="terminal-763461908-r2" x="963.8" y="93.2" textLength="12.2" clip-path="url(#terminal-763461908-line-3)">
</text><text class="terminal-763461908-r3" x="97.6" y="117.6" textLength="768.6" clip-path="url(#terminal-763461908-line-4)">/&#160;__|&#160;&#x27;_&#160;`&#160;_&#160;\&#160;/&#160;_&#160;\|&#160;|_____|&#160;|/&#160;/&#160;_&#160;\/&#160;__|_____|&#160;|/&#160;_`&#160;|&#160;&#x27;_&#160;\&#160;</text><text class="terminal-763461908-r2" x="963.8" y="117.6" textLength="12.2" clip-path="url(#terminal-763461908-line-4)">
</text><text class="terminal-763461908-r3" x="97.6" y="142" textLength="768.6" clip-path="url(#terminal-763461908-line-5)">\__&#160;\&#160;|&#160;|&#160;|&#160;|&#160;|&#160;(_)&#160;|&#160;|_____|&#160;&#160;&#160;&lt;&#160;(_)&#160;\__&#160;\_____|&#160;|&#160;(_|&#160;|&#160;|_)&#160;|</text><text class="terminal-763461908-r2" x="963.8" y="142" textLength="12.2" clip-path="url(#terminal-763461908-line-5)">
</text><text class="terminal-763461908-r3" x="97.6" y="166.4" textLength="768.6" clip-path="url(#terminal-763461908-line-6)">|___/_|&#160;|_|&#160;|_|\___/|_|&#160;&#160;&#160;&#160;&#160;|_|\_\___/|___/&#160;&#160;&#160;&#160;&#160;|_|\__,_|_.__/&#160;</text><text class="terminal-763461908-r2" x="963.8" y="166.4" textLength="12.2" clip-path="url(#terminal-763461908-line-6)">
</text><text class="terminal-763461908-r2" x="963.8" y="190.8" textLength="12.2" clip-path="url(#terminal-763461908-line-7)">
</text><text class="terminal-763461908-r2" x="963.8" y="215.2" textLength="12.2" clip-path="url(#terminal-763461908-line-8)">
</text><text class="terminal-763461908-r2" x="963.8" y="239.6" textLength="12.2" clip-path="url(#terminal-763461908-line-9)">
</text><text class="terminal-763461908-r4" x="97.6" y="264" textLength="12.2" clip-path="url(#terminal-763461908-line-10)">╭</text><text class="terminal-763461908-r4" x="109.8" y="264" textLength="109.8" clip-path="url(#terminal-763461908-line-10)">─────────</text><text class="terminal-763461908-r6" x="231.8" y="264" textLength="73.2" clip-path="url(#terminal-763461908-line-10)">Create</text><text class="terminal-763461908-r5" x="305" y="264" textLength="36.6" clip-path="url(#terminal-763461908-line-10)">&#160;a&#160;</text><text class="terminal-763461908-r7" x="341.6" y="264" textLength="36.6" clip-path="url(#terminal-763461908-line-10)">new</text><text class="terminal-763461908-r3" x="390.4" y="264" textLength="85.4" clip-path="url(#terminal-763461908-line-10)">cluster</text><text class="terminal-763461908-r5" x="475.8" y="264" textLength="256.2" clip-path="url(#terminal-763461908-line-10)">&#160;with&#160;the&#160;name&#160;below&#160;</text><text class="terminal-763461908-r4" x="732" y="264" textLength="122" clip-path="url(#terminal-763461908-line-10)">──────────</text><text class="terminal-763461908-r4" x="854" y="264" textLength="12.2" clip-path="url(#terminal-763461908-line-10)">╮</text><text class="terminal-763461908-r2" x="963.8" y="264" textLength="12.2" clip-path="url(#terminal-763461908-line-10)">
</text><text class="terminal-763461908-r4" x="97.6" y="288.4" textLength="12.2" clip-path="url(#terminal-763461908-line-11)">│</text><text class="terminal-763461908-r4" x="854" y="288.4" textLength="12.2" clip-path="url(#terminal-763461908-line-11)">│</text><text class="terminal-763461908-r2" x="963.8" y="288.4" textLength="12.2" clip-path="url(#terminal-763461908-line-11)">
</text><text class="terminal-763461908-r4" x="97.6" y="312.8" textLength="12.2" clip-path="url(#terminal-763461908-line-12)">│</text><text class="terminal-763461908-r4" x="854" y="312.8" textLength="12.2" clip-path="url(#terminal-763461908-line-12)">│</text><text class="terminal-763461908-r2" x="963.8" y="312.8" textLength="12.2" clip-path="url(#terminal-763461908-line-12)">
</text><text class="terminal-763461908-r4" x="97.6" y="337.2" textLength="12.2" clip-path="url(#terminal-763461908-line-13)">│</text><text class="terminal-763461908-r8" x="256.2" y="337.2" textLength="12.2" clip-path="url(#terminal-763461908-line-13)">▊</text><text class="terminal-763461908-r9" x="268.4" y="337.2" textLength="231.8" clip-path="url(#terminal-763461908-line-13)">▔▔▔▔▔▔▔▔▔▔▔▔▔▔▔▔▔▔▔</text><text class="terminal-763461908-r9" x="500.2" y="337.2" textLength="12.2" clip-path="url(#terminal-763461908-line-13)">▎</text><text class="terminal-763461908-r10" x="512.4" y="337.2" textLength="195.2" clip-path="url(#terminal-763461908-line-13)">▔▔▔▔▔▔▔▔▔▔▔▔▔▔▔▔</text><text class="terminal-763461908-r4" x="854" y="337.2" textLength="12.2" clip-path="url(#terminal-763461908-line-13)">│</text><text class="terminal-763461908-r2" x="963.8" y="337.2" textLength="12.2" clip-path="url(#terminal-763461908-line-13)">
</text><text class="terminal-763461908-r4" x="97.6" y="361.6" textLength="12.2" clip-path="url(#terminal-763461908-line-14)">│</text><text class="terminal-763461908-r8" x="256.2" y="361.6" textLength="12.2" clip-path="url(#terminal-763461908-line-14)">▊</text><text class="terminal-763461908-r11" x="292.8" y="361.6" textLength="158.6" clip-path="url(#terminal-763461908-line-14)">lovely-friend</text><text class="terminal-763461908-r9" x="500.2" y="361.6" textLength="12.2" clip-path="url(#terminal-763461908-line-14)">▎</text><text class="terminal-763461908-r12" x="512.4" y="361.6" textLength="183" clip-path="url(#terminal-763461908-line-14)">&#160;✨&#160;New&#160;Cluster&#160;</text><text class="terminal-763461908-r4" x="854" y="361.6" textLength="12.2" clip-path="url(#terminal-763461908-line-14)">│</text><text class="terminal-763461908-r2" x="963.8" y="361.6" textLength="12.2" clip-path="url(#terminal-763461908-line-14)">
</text><text class="terminal-763461908-r4" x="97.6" y="386" textLength="12.2" clip-path="url(#terminal-763461908-line-15)">│</text><text class="terminal-763461908-r8" x="256.2" y="386" textLength="12.2" clip-path="url(#terminal-763461908-line-15)">▊</text><text class="terminal-763461908-r9" x="268.4" y="386" textLength="231.8" clip-path="url(#terminal-763461908-line-15)">▁▁▁▁▁▁▁▁▁▁▁▁▁▁▁▁▁▁▁</text><text class="terminal-763461908-r9" x="500.2" y="386" textLength="12.2" clip-path="url(#terminal-763461908-line-15)">▎</text><text class="terminal-763461908-r13" x="512.4" y="386" textLength="195.2" clip-path="url(#terminal-763461908-line-15)">▁▁▁▁▁▁▁▁▁▁▁▁▁▁▁▁</text><text class="terminal-763461908-r4" x="854" y="386" textLength="12.2" clip-path="url(#terminal-763461908-line-15)">│</text><text class="terminal-763461908-r2" x="963.8" y="386" textLength="12.2" clip-path="url(#terminal-763461908-line-15)">
</text><text class="terminal-763461908-r4" x="97.6" y="410.4" textLength="12.2" clip-path="url(#terminal-763461908-line-16)">│</text><text class="terminal-763461908-r4" x="854" y="410.4" textLength="12.2" clip-path="url(#terminal-763461908-line-16)">│</text><text class="terminal-763461908-r2" x="963.8" y="410.4" textLength="12.2" clip-path="url(#terminal-763461908-line-16)">
</text><text class="terminal-763461908-r4" x="97.6" y="434.8" textLength="12.2" clip-path="url(#terminal-763461908-line-17)">╰</text><text class="terminal-763461908-r4" x="109.8" y="434.8" textLength="744.2" clip-path="url(#terminal-763461908-line-17)">─────────────────────────────────────────────────────────────</text><text class="terminal-763461908-r4" x="854" y="434.8" textLength="12.2" clip-path="url(#terminal-763461908-line-17)">╯</text><text class="terminal-763461908-r2" x="963.8" y="434.8" textLength="12.2" clip-path="url(#terminal-763461908-line-17)">
</text><text class="terminal-763461908-r2" x="963.8" y="459.2" textLength="12.2" clip-path="url(#terminal-763461908-line-18)">
</text><text class="terminal-763461908-r2" x="963.8" y="483.6" textLength="12.2" clip-path="url(#terminal-763461908-line-19)">
</text>
    </g>
    </g>
</svg>
