<svg class="rich-terminal" viewBox="0 0 946 904.0" xmlns="http://www.w3.org/2000/svg">
    <!-- Generated with Rich https://www.textualize.io -->
    <style>

    @font-face {
        font-family: "Fira Code";
        src: local("FiraCode-Regular"),
                url("https://cdnjs.cloudflare.com/ajax/libs/firacode/6.2.0/woff2/FiraCode-Regular.woff2") format("woff2"),
                url("https://cdnjs.cloudflare.com/ajax/libs/firacode/6.2.0/woff/FiraCode-Regular.woff") format("woff");
        font-style: normal;
        font-weight: 400;
    }
    @font-face {
        font-family: "Fira Code";
        src: local("FiraCode-Bold"),
                url("https://cdnjs.cloudflare.com/ajax/libs/firacode/6.2.0/woff2/FiraCode-Bold.woff2") format("woff2"),
                url("https://cdnjs.cloudflare.com/ajax/libs/firacode/6.2.0/woff/FiraCode-Bold.woff") format("woff");
        font-style: bold;
        font-weight: 700;
    }

    .terminal-2795026030-matrix {
        font-family: Fira Code, monospace;
        font-size: 20px;
        line-height: 24.4px;
        font-variant-east-asian: full-width;
    }

    .terminal-2795026030-title {
        font-size: 18px;
        font-weight: bold;
        font-family: arial;
    }

    .terminal-2795026030-r1 { fill: #e1e1e1 }
.terminal-2795026030-r2 { fill: #c5c8c6 }
.terminal-2795026030-r3 { fill: #c1ff87 }
.terminal-2795026030-r4 { fill: #5f87ff }
.terminal-2795026030-r5 { fill: #5cc9fd }
.terminal-2795026030-r6 { fill: #ffaff9 }
.terminal-2795026030-r7 { fill: #5cc9fd;font-style: italic; }
.terminal-2795026030-r8 { fill: #5cc9fd;font-weight: bold }
.terminal-2795026030-r9 { fill: #232336 }
.terminal-2795026030-r10 { fill: #7aa2f7 }
.terminal-2795026030-r11 { fill: #1c1c2c }
.terminal-2795026030-r12 { fill: #414767 }
.terminal-2795026030-r13 { fill: #cbcbd0 }
.terminal-2795026030-r14 { fill: #7aa2f7;font-weight: bold }
.terminal-2795026030-r15 { fill: #2e2e38 }
    </style>

    <defs>
    <clipPath id="terminal-2795026030-clip-terminal">
      <rect x="0" y="0" width="926.1999999999999" height="853.0" />
    </clipPath>
    <clipPath id="terminal-2795026030-line-0">
    <rect x="0" y="1.5" width="927.2" height="24.65"/>
            </clipPath>
<clipPath id="terminal-2795026030-line-1">
    <rect x="0" y="25.9" width="927.2" height="24.65"/>
            </clipPath>
<clipPath id="terminal-2795026030-line-2">
    <rect x="0" y="50.3" width="927.2" height="24.65"/>
            </clipPath>
<clipPath id="terminal-2795026030-line-3">
    <rect x="0" y="74.7" width="927.2" height="24.65"/>
            </clipPath>
<clipPath id="terminal-2795026030-line-4">
    <rect x="0" y="99.1" width="927.2" height="24.65"/>
            </clipPath>
<clipPath id="terminal-2795026030-line-5">
    <rect x="0" y="123.5" width="927.2" height="24.65"/>
            </clipPath>
<clipPath id="terminal-2795026030-line-6">
    <rect x="0" y="147.9" width="927.2" height="24.65"/>
            </clipPath>
<clipPath id="terminal-2795026030-line-7">
    <rect x="0" y="172.3" width="927.2" height="24.65"/>
            </clipPath>
<clipPath id="terminal-2795026030-line-8">
    <rect x="0" y="196.7" width="927.2" height="24.65"/>
            </clipPath>
<clipPath id="terminal-2795026030-line-9">
    <rect x="0" y="221.1" width="927.2" height="24.65"/>
            </clipPath>
<clipPath id="terminal-2795026030-line-10">
    <rect x="0" y="245.5" width="927.2" height="24.65"/>
            </clipPath>
<clipPath id="terminal-2795026030-line-11">
    <rect x="0" y="269.9" width="927.2" height="24.65"/>
            </clipPath>
<clipPath id="terminal-2795026030-line-12">
    <rect x="0" y="294.3" width="927.2" height="24.65"/>
            </clipPath>
<clipPath id="terminal-2795026030-line-13">
    <rect x="0" y="318.7" width="927.2" height="24.65"/>
            </clipPath>
<clipPath id="terminal-2795026030-line-14">
    <rect x="0" y="343.1" width="927.2" height="24.65"/>
            </clipPath>
<clipPath id="terminal-2795026030-line-15">
    <rect x="0" y="367.5" width="927.2" height="24.65"/>
            </clipPath>
<clipPath id="terminal-2795026030-line-16">
    <rect x="0" y="391.9" width="927.2" height="24.65"/>
            </clipPath>
<clipPath id="terminal-2795026030-line-17">
    <rect x="0" y="416.3" width="927.2" height="24.65"/>
            </clipPath>
<clipPath id="terminal-2795026030-line-18">
    <rect x="0" y="440.7" width="927.2" height="24.65"/>
            </clipPath>
<clipPath id="terminal-2795026030-line-19">
    <rect x="0" y="465.1" width="927.2" height="24.65"/>
            </clipPath>
<clipPath id="terminal-2795026030-line-20">
    <rect x="0" y="489.5" width="927.2" height="24.65"/>
            </clipPath>
<clipPath id="terminal-2795026030-line-21">
    <rect x="0" y="513.9" width="927.2" height="24.65"/>
            </clipPath>
<clipPath id="terminal-2795026030-line-22">
    <rect x="0" y="538.3" width="927.2" height="24.65"/>
            </clipPath>
<clipPath id="terminal-2795026030-line-23">
    <rect x="0" y="562.7" width="927.2" height="24.65"/>
            </clipPath>
<clipPath id="terminal-2795026030-line-24">
    <rect x="0" y="587.1" width="927.2" height="24.65"/>
            </clipPath>
<clipPath id="terminal-2795026030-line-25">
    <rect x="0" y="611.5" width="927.2" height="24.65"/>
            </clipPath>
<clipPath id="terminal-2795026030-line-26">
    <rect x="0" y="635.9" width="927.2" height="24.65"/>
            </clipPath>
<clipPath id="terminal-2795026030-line-27">
    <rect x="0" y="660.3" width="927.2" height="24.65"/>
            </clipPath>
<clipPath id="terminal-2795026030-line-28">
    <rect x="0" y="684.7" width="927.2" height="24.65"/>
            </clipPath>
<clipPath id="terminal-2795026030-line-29">
    <rect x="0" y="709.1" width="927.2" height="24.65"/>
            </clipPath>
<clipPath id="terminal-2795026030-line-30">
    <rect x="0" y="733.5" width="927.2" height="24.65"/>
            </clipPath>
<clipPath id="terminal-2795026030-line-31">
    <rect x="0" y="757.9" width="927.2" height="24.65"/>
            </clipPath>
<clipPath id="terminal-2795026030-line-32">
    <rect x="0" y="782.3" width="927.2" height="24.65"/>
            </clipPath>
<clipPath id="terminal-2795026030-line-33">
    <rect x="0" y="806.7" width="927.2" height="24.65"/>
            </clipPath>
    </defs>

    <rect fill="#292929" stroke="rgba(255,255,255,0.35)" stroke-width="1" x="1" y="1" width="944" height="902" rx="8"/><text class="terminal-2795026030-title" fill="#c5c8c6" text-anchor="middle" x="472" y="27">BaseApp</text>
            <g transform="translate(26,22)">
            <circle cx="0" cy="0" r="7" fill="#ff5f57"/>
            <circle cx="22" cy="0" r="7" fill="#febc2e"/>
            <circle cx="44" cy="0" r="7" fill="#28c840"/>
            </g>
        
    <g transform="translate(9, 41)" clip-path="url(#terminal-2795026030-clip-terminal)">
    <rect fill="#1e1e1e" x="0" y="1.5" width="927.2" height="24.65" shape-rendering="crispEdges"/><rect fill="#1e1e1e" x="0" y="25.9" width="927.2" height="24.65" shape-rendering="crispEdges"/><rect fill="#1e1e1e" x="0" y="50.3" width="48.8" height="24.65" shape-rendering="crispEdges"/><rect fill="#1e1e1e" x="48.8" y="50.3" width="24.4" height="24.65" shape-rendering="crispEdges"/><rect fill="#1e1e1e" x="73.2" y="50.3" width="768.6" height="24.65" shape-rendering="crispEdges"/><rect fill="#1e1e1e" x="841.8" y="50.3" width="36.6" height="24.65" shape-rendering="crispEdges"/><rect fill="#1e1e1e" x="878.4" y="50.3" width="48.8" height="24.65" shape-rendering="crispEdges"/><rect fill="#1e1e1e" x="0" y="74.7" width="48.8" height="24.65" shape-rendering="crispEdges"/><rect fill="#1e1e1e" x="48.8" y="74.7" width="24.4" height="24.65" shape-rendering="crispEdges"/><rect fill="#1e1e1e" x="73.2" y="74.7" width="768.6" height="24.65" shape-rendering="crispEdges"/><rect fill="#1e1e1e" x="841.8" y="74.7" width="36.6" height="24.65" shape-rendering="crispEdges"/><rect fill="#1e1e1e" x="878.4" y="74.7" width="48.8" height="24.65" shape-rendering="crispEdges"/><rect fill="#1e1e1e" x="0" y="99.1" width="48.8" height="24.65" shape-rendering="crispEdges"/><rect fill="#1e1e1e" x="48.8" y="99.1" width="24.4" height="24.65" shape-rendering="crispEdges"/><rect fill="#1e1e1e" x="73.2" y="99.1" width="768.6" height="24.65" shape-rendering="crispEdges"/><rect fill="#1e1e1e" x="841.8" y="99.1" width="36.6" height="24.65" shape-rendering="crispEdges"/><rect fill="#1e1e1e" x="878.4" y="99.1" width="48.8" height="24.65" shape-rendering="crispEdges"/><rect fill="#1e1e1e" x="0" y="123.5" width="48.8" height="24.65" shape-rendering="crispEdges"/><rect fill="#1e1e1e" x="48.8" y="123.5" width="24.4" height="24.65" shape-rendering="crispEdges"/><rect fill="#1e1e1e" x="73.2" y="123.5" width="768.6" height="24.65" shape-rendering="crispEdges"/><rect fill="#1e1e1e" x="841.8" y="123.5" width="36.6" height="24.65" shape-rendering="crispEdges"/><rect fill="#1e1e1e" x="878.4" y="123.5" width="48.8" height="24.65" shape-rendering="crispEdges"/><rect fill="#1e1e1e" x="0" y="147.9" width="48.8" height="24.65" shape-rendering="crispEdges"/><rect fill="#1e1e1e" x="48.8" y="147.9" width="24.4" height="24.65" shape-rendering="crispEdges"/><rect fill="#1e1e1e" x="73.2" y="147.9" width="768.6" height="24.65" shape-rendering="crispEdges"/><rect fill="#1e1e1e" x="841.8" y="147.9" width="36.6" height="24.65" shape-rendering="crispEdges"/><rect fill="#1e1e1e" x="878.4" y="147.9" width="48.8" height="24.65" shape-rendering="crispEdges"/><rect fill="#1e1e1e" x="0" y="172.3" width="48.8" height="24.65" shape-rendering="crispEdges"/><rect fill="#1e1e1e" x="48.8" y="172.3" width="24.4" height="24.65" shape-rendering="crispEdges"/><rect fill="#1e1e1e" x="73.2" y="172.3" width="768.6" height="24.65" shape-rendering="crispEdges"/><rect fill="#1e1e1e" x="841.8" y="172.3" width="36.6" height="24.65" shape-rendering="crispEdges"/><rect fill="#1e1e1e" x="878.4" y="172.3" width="48.8" height="24.65" shape-rendering="crispEdges"/><rect fill="#1e1e1e" x="0" y="196.7" width="48.8" height="24.65" shape-rendering="crispEdges"/><rect fill="#1e1e1e" x="48.8" y="196.7" width="24.4" height="24.65" shape-rendering="crispEdges"/><rect fill="#1e1e1e" x="73.2" y="196.7" width="805.2" height="24.65" shape-rendering="crispEdges"/><rect fill="#1e1e1e" x="878.4" y="196.7" width="48.8" height="24.65" shape-rendering="crispEdges"/><rect fill="#1e1e1e" x="0" y="221.1" width="48.8" height="24.65" shape-rendering="crispEdges"/><rect fill="#1e1e1e" x="48.8" y="221.1" width="829.6" height="24.65" shape-rendering="crispEdges"/><rect fill="#1e1e1e" x="878.4" y="221.1" width="48.8" height="24.65" shape-rendering="crispEdges"/><rect fill="#1e1e1e" x="0" y="245.5" width="48.8" height="24.65" shape-rendering="crispEdges"/><rect fill="#232336" x="48.8" y="245.5" width="12.2" height="24.65" shape-rendering="crispEdges"/><rect fill="#232336" x="61" y="245.5" width="73.2" height="24.65" shape-rendering="crispEdges"/><rect fill="#232336" x="134.2" y="245.5" width="207.4" height="24.65" shape-rendering="crispEdges"/><rect fill="#232336" x="341.6" y="245.5" width="73.2" height="24.65" shape-rendering="crispEdges"/><rect fill="#232336" x="414.8" y="245.5" width="48.8" height="24.65" shape-rendering="crispEdges"/><rect fill="#232336" x="463.6" y="245.5" width="73.2" height="24.65" shape-rendering="crispEdges"/><rect fill="#232336" x="536.8" y="245.5" width="48.8" height="24.65" shape-rendering="crispEdges"/><rect fill="#232336" x="585.6" y="245.5" width="97.6" height="24.65" shape-rendering="crispEdges"/><rect fill="#232336" x="683.2" y="245.5" width="12.2" height="24.65" shape-rendering="crispEdges"/><rect fill="#232336" x="695.4" y="245.5" width="85.4" height="24.65" shape-rendering="crispEdges"/><rect fill="#232336" x="780.8" y="245.5" width="12.2" height="24.65" shape-rendering="crispEdges"/><rect fill="#232336" x="793" y="245.5" width="73.2" height="24.65" shape-rendering="crispEdges"/><rect fill="#232336" x="866.2" y="245.5" width="12.2" height="24.65" shape-rendering="crispEdges"/><rect fill="#1e1e1e" x="878.4" y="245.5" width="48.8" height="24.65" shape-rendering="crispEdges"/><rect fill="#1e1e1e" x="0" y="269.9" width="48.8" height="24.65" shape-rendering="crispEdges"/><rect fill="#232336" x="48.8" y="269.9" width="12.2" height="24.65" shape-rendering="crispEdges"/><rect fill="#232336" x="61" y="269.9" width="12.2" height="24.65" shape-rendering="crispEdges"/><rect fill="#232336" x="73.2" y="269.9" width="780.8" height="24.65" shape-rendering="crispEdges"/><rect fill="#232336" x="854" y="269.9" width="12.2" height="24.65" shape-rendering="crispEdges"/><rect fill="#232336" x="866.2" y="269.9" width="12.2" height="24.65" shape-rendering="crispEdges"/><rect fill="#1e1e1e" x="878.4" y="269.9" width="48.8" height="24.65" shape-rendering="crispEdges"/><rect fill="#1e1e1e" x="0" y="294.3" width="48.8" height="24.65" shape-rendering="crispEdges"/><rect fill="#232336" x="48.8" y="294.3" width="12.2" height="24.65" shape-rendering="crispEdges"/><rect fill="#232336" x="61" y="294.3" width="12.2" height="24.65" shape-rendering="crispEdges"/><rect fill="#232336" x="73.2" y="294.3" width="780.8" height="24.65" shape-rendering="crispEdges"/><rect fill="#232336" x="854" y="294.3" width="12.2" height="24.65" shape-rendering="crispEdges"/><rect fill="#232336" x="866.2" y="294.3" width="12.2" height="24.65" shape-rendering="crispEdges"/><rect fill="#1e1e1e" x="878.4" y="294.3" width="48.8" height="24.65" shape-rendering="crispEdges"/><rect fill="#1e1e1e" x="0" y="318.7" width="48.8" height="24.65" shape-rendering="crispEdges"/><rect fill="#232336" x="48.8" y="318.7" width="12.2" height="24.65" shape-rendering="crispEdges"/><rect fill="#232336" x="61" y="318.7" width="12.2" height="24.65" shape-rendering="crispEdges"/><rect fill="#232336" x="73.2" y="318.7" width="780.8" height="24.65" shape-rendering="crispEdges"/><rect fill="#232336" x="854" y="318.7" width="12.2" height="24.65" shape-rendering="crispEdges"/><rect fill="#232336" x="866.2" y="318.7" width="12.2" height="24.65" shape-rendering="crispEdges"/><rect fill="#1e1e1e" x="878.4" y="318.7" width="48.8" height="24.65" shape-rendering="crispEdges"/><rect fill="#1e1e1e" x="0" y="343.1" width="48.8" height="24.65" shape-rendering="crispEdges"/><rect fill="#232336" x="48.8" y="343.1" width="12.2" height="24.65" shape-rendering="crispEdges"/><rect fill="#232336" x="61" y="343.1" width="12.2" height="24.65" shape-rendering="crispEdges"/><rect fill="#232336" x="73.2" y="343.1" width="780.8" height="24.65" shape-rendering="crispEdges"/><rect fill="#232336" x="854" y="343.1" width="12.2" height="24.65" shape-rendering="crispEdges"/><rect fill="#232336" x="866.2" y="343.1" width="12.2" height="24.65" shape-rendering="crispEdges"/><rect fill="#1e1e1e" x="878.4" y="343.1" width="48.8" height="24.65" shape-rendering="crispEdges"/><rect fill="#1e1e1e" x="0" y="367.5" width="48.8" height="24.65" shape-rendering="crispEdges"/><rect fill="#232336" x="48.8" y="367.5" width="12.2" height="24.65" shape-rendering="crispEdges"/><rect fill="#232336" x="61" y="367.5" width="12.2" height="24.65" shape-rendering="crispEdges"/><rect fill="#232336" x="73.2" y="367.5" width="207.4" height="24.65" shape-rendering="crispEdges"/><rect fill="#313131" x="280.6" y="367.5" width="256.2" height="24.65" shape-rendering="crispEdges"/><rect fill="#313131" x="536.8" y="367.5" width="97.6" height="24.65" shape-rendering="crispEdges"/><rect fill="#2c2c2c" x="634.4" y="367.5" width="0" height="24.65" shape-rendering="crispEdges"/><rect fill="#232336" x="634.4" y="367.5" width="219.6" height="24.65" shape-rendering="crispEdges"/><rect fill="#232336" x="854" y="367.5" width="12.2" height="24.65" shape-rendering="crispEdges"/><rect fill="#232336" x="866.2" y="367.5" width="12.2" height="24.65" shape-rendering="crispEdges"/><rect fill="#1e1e1e" x="878.4" y="367.5" width="48.8" height="24.65" shape-rendering="crispEdges"/><rect fill="#1e1e1e" x="0" y="391.9" width="48.8" height="24.65" shape-rendering="crispEdges"/><rect fill="#232336" x="48.8" y="391.9" width="12.2" height="24.65" shape-rendering="crispEdges"/><rect fill="#232336" x="61" y="391.9" width="12.2" height="24.65" shape-rendering="crispEdges"/><rect fill="#232336" x="73.2" y="391.9" width="207.4" height="24.65" shape-rendering="crispEdges"/><rect fill="#5e7ab5" x="280.6" y="391.9" width="256.2" height="24.65" shape-rendering="crispEdges"/><rect fill="#5e7ab5" x="536.8" y="391.9" width="97.6" height="24.65" shape-rendering="crispEdges"/><rect fill="#212225" x="634.4" y="391.9" width="0" height="24.65" shape-rendering="crispEdges"/><rect fill="#232336" x="634.4" y="391.9" width="219.6" height="24.65" shape-rendering="crispEdges"/><rect fill="#232336" x="854" y="391.9" width="12.2" height="24.65" shape-rendering="crispEdges"/><rect fill="#232336" x="866.2" y="391.9" width="12.2" height="24.65" shape-rendering="crispEdges"/><rect fill="#1e1e1e" x="878.4" y="391.9" width="48.8" height="24.65" shape-rendering="crispEdges"/><rect fill="#1e1e1e" x="0" y="416.3" width="48.8" height="24.65" shape-rendering="crispEdges"/><rect fill="#232336" x="48.8" y="416.3" width="12.2" height="24.65" shape-rendering="crispEdges"/><rect fill="#232336" x="61" y="416.3" width="12.2" height="24.65" shape-rendering="crispEdges"/><rect fill="#232336" x="73.2" y="416.3" width="207.4" height="24.65" shape-rendering="crispEdges"/><rect fill="#5e7ab5" x="280.6" y="416.3" width="256.2" height="24.65" shape-rendering="crispEdges"/><rect fill="#5e7ab5" x="536.8" y="416.3" width="97.6" height="24.65" shape-rendering="crispEdges"/><rect fill="#212225" x="634.4" y="416.3" width="0" height="24.65" shape-rendering="crispEdges"/><rect fill="#232336" x="634.4" y="416.3" width="219.6" height="24.65" shape-rendering="crispEdges"/><rect fill="#232336" x="854" y="416.3" width="12.2" height="24.65" shape-rendering="crispEdges"/><rect fill="#232336" x="866.2" y="416.3" width="12.2" height="24.65" shape-rendering="crispEdges"/><rect fill="#1e1e1e" x="878.4" y="416.3" width="48.8" height="24.65" shape-rendering="crispEdges"/><rect fill="#1e1e1e" x="0" y="440.7" width="48.8" height="24.65" shape-rendering="crispEdges"/><rect fill="#232336" x="48.8" y="440.7" width="12.2" height="24.65" shape-rendering="crispEdges"/><rect fill="#232336" x="61" y="440.7" width="12.2" height="24.65" shape-rendering="crispEdges"/><rect fill="#232336" x="73.2" y="440.7" width="207.4" height="24.65" shape-rendering="crispEdges"/><rect fill="#5e7ab5" x="280.6" y="440.7" width="256.2" height="24.65" shape-rendering="crispEdges"/><rect fill="#5e7ab5" x="536.8" y="440.7" width="97.6" height="24.65" shape-rendering="crispEdges"/><rect fill="#212225" x="634.4" y="440.7" width="0" height="24.65" shape-rendering="crispEdges"/><rect fill="#232336" x="634.4" y="440.7" width="219.6" height="24.65" shape-rendering="crispEdges"/><rect fill="#232336" x="854" y="440.7" width="12.2" height="24.65" shape-rendering="crispEdges"/><rect fill="#232336" x="866.2" y="440.7" width="12.2" height="24.65" shape-rendering="crispEdges"/><rect fill="#1e1e1e" x="878.4" y="440.7" width="48.8" height="24.65" shape-rendering="crispEdges"/><rect fill="#1e1e1e" x="0" y="465.1" width="48.8" height="24.65" shape-rendering="crispEdges"/><rect fill="#232336" x="48.8" y="465.1" width="12.2" height="24.65" shape-rendering="crispEdges"/><rect fill="#232336" x="61" y="465.1" width="12.2" height="24.65" shape-rendering="crispEdges"/><rect fill="#232336" x="73.2" y="465.1" width="780.8" height="24.65" shape-rendering="crispEdges"/><rect fill="#232336" x="854" y="465.1" width="12.2" height="24.65" shape-rendering="crispEdges"/><rect fill="#232336" x="866.2" y="465.1" width="12.2" height="24.65" shape-rendering="crispEdges"/><rect fill="#1e1e1e" x="878.4" y="465.1" width="48.8" height="24.65" shape-rendering="crispEdges"/><rect fill="#1e1e1e" x="0" y="489.5" width="48.8" height="24.65" shape-rendering="crispEdges"/><rect fill="#232336" x="48.8" y="489.5" width="12.2" height="24.65" shape-rendering="crispEdges"/><rect fill="#232336" x="61" y="489.5" width="12.2" height="24.65" shape-rendering="crispEdges"/><rect fill="#232336" x="73.2" y="489.5" width="780.8" height="24.65" shape-rendering="crispEdges"/><rect fill="#232336" x="854" y="489.5" width="12.2" height="24.65" shape-rendering="crispEdges"/><rect fill="#232336" x="866.2" y="489.5" width="12.2" height="24.65" shape-rendering="crispEdges"/><rect fill="#1e1e1e" x="878.4" y="489.5" width="48.8" height="24.65" shape-rendering="crispEdges"/><rect fill="#1e1e1e" x="0" y="513.9" width="48.8" height="24.65" shape-rendering="crispEdges"/><rect fill="#232336" x="48.8" y="513.9" width="12.2" height="24.65" shape-rendering="crispEdges"/><rect fill="#232336" x="61" y="513.9" width="12.2" height="24.65" shape-rendering="crispEdges"/><rect fill="#232336" x="73.2" y="513.9" width="780.8" height="24.65" shape-rendering="crispEdges"/><rect fill="#232336" x="854" y="513.9" width="12.2" height="24.65" shape-rendering="crispEdges"/><rect fill="#232336" x="866.2" y="513.9" width="12.2" height="24.65" shape-rendering="crispEdges"/><rect fill="#1e1e1e" x="878.4" y="513.9" width="48.8" height="24.65" shape-rendering="crispEdges"/><rect fill="#1e1e1e" x="0" y="538.3" width="48.8" height="24.65" shape-rendering="crispEdges"/><rect fill="#232336" x="48.8" y="538.3" width="12.2" height="24.65" shape-rendering="crispEdges"/><rect fill="#232336" x="61" y="538.3" width="12.2" height="24.65" shape-rendering="crispEdges"/><rect fill="#232336" x="73.2" y="538.3" width="780.8" height="24.65" shape-rendering="crispEdges"/><rect fill="#232336" x="854" y="538.3" width="12.2" height="24.65" shape-rendering="crispEdges"/><rect fill="#232336" x="866.2" y="538.3" width="12.2" height="24.65" shape-rendering="crispEdges"/><rect fill="#1e1e1e" x="878.4" y="538.3" width="48.8" height="24.65" shape-rendering="crispEdges"/><rect fill="#1e1e1e" x="0" y="562.7" width="48.8" height="24.65" shape-rendering="crispEdges"/><rect fill="#232336" x="48.8" y="562.7" width="12.2" height="24.65" shape-rendering="crispEdges"/><rect fill="#232336" x="61" y="562.7" width="805.2" height="24.65" shape-rendering="crispEdges"/><rect fill="#232336" x="866.2" y="562.7" width="12.2" height="24.65" shape-rendering="crispEdges"/><rect fill="#1e1e1e" x="878.4" y="562.7" width="48.8" height="24.65" shape-rendering="crispEdges"/><rect fill="#1e1e1e" x="0" y="587.1" width="48.8" height="24.65" shape-rendering="crispEdges"/><rect fill="#1e1e1e" x="48.8" y="587.1" width="829.6" height="24.65" shape-rendering="crispEdges"/><rect fill="#1e1e1e" x="878.4" y="587.1" width="48.8" height="24.65" shape-rendering="crispEdges"/><rect fill="#1e1e1e" x="0" y="611.5" width="48.8" height="24.65" shape-rendering="crispEdges"/><rect fill="#1e1e1e" x="48.8" y="611.5" width="829.6" height="24.65" shape-rendering="crispEdges"/><rect fill="#1e1e1e" x="878.4" y="611.5" width="48.8" height="24.65" shape-rendering="crispEdges"/><rect fill="#1e1e1e" x="0" y="635.9" width="48.8" height="24.65" shape-rendering="crispEdges"/><rect fill="#232336" x="48.8" y="635.9" width="12.2" height="24.65" shape-rendering="crispEdges"/><rect fill="#232336" x="61" y="635.9" width="146.4" height="24.65" shape-rendering="crispEdges"/><rect fill="#232336" x="207.4" y="635.9" width="12.2" height="24.65" shape-rendering="crispEdges"/><rect fill="#232336" x="219.6" y="635.9" width="73.2" height="24.65" shape-rendering="crispEdges"/><rect fill="#232336" x="292.8" y="635.9" width="36.6" height="24.65" shape-rendering="crispEdges"/><rect fill="#232336" x="329.4" y="635.9" width="36.6" height="24.65" shape-rendering="crispEdges"/><rect fill="#232336" x="366" y="635.9" width="12.2" height="24.65" shape-rendering="crispEdges"/><rect fill="#232336" x="378.2" y="635.9" width="85.4" height="24.65" shape-rendering="crispEdges"/><rect fill="#232336" x="463.6" y="635.9" width="256.2" height="24.65" shape-rendering="crispEdges"/><rect fill="#232336" x="719.8" y="635.9" width="146.4" height="24.65" shape-rendering="crispEdges"/><rect fill="#232336" x="866.2" y="635.9" width="12.2" height="24.65" shape-rendering="crispEdges"/><rect fill="#1e1e1e" x="878.4" y="635.9" width="48.8" height="24.65" shape-rendering="crispEdges"/><rect fill="#1e1e1e" x="0" y="660.3" width="48.8" height="24.65" shape-rendering="crispEdges"/><rect fill="#232336" x="48.8" y="660.3" width="12.2" height="24.65" shape-rendering="crispEdges"/><rect fill="#232336" x="61" y="660.3" width="805.2" height="24.65" shape-rendering="crispEdges"/><rect fill="#232336" x="866.2" y="660.3" width="12.2" height="24.65" shape-rendering="crispEdges"/><rect fill="#1e1e1e" x="878.4" y="660.3" width="48.8" height="24.65" shape-rendering="crispEdges"/><rect fill="#1e1e1e" x="0" y="684.7" width="48.8" height="24.65" shape-rendering="crispEdges"/><rect fill="#232336" x="48.8" y="684.7" width="12.2" height="24.65" shape-rendering="crispEdges"/><rect fill="#232336" x="61" y="684.7" width="158.6" height="24.65" shape-rendering="crispEdges"/><rect fill="#1c1c2c" x="219.6" y="684.7" width="12.2" height="24.65" shape-rendering="crispEdges"/><rect fill="#2f3146" x="231.8" y="684.7" width="256.2" height="24.65" shape-rendering="crispEdges"/><rect fill="#232336" x="488" y="684.7" width="12.2" height="24.65" shape-rendering="crispEdges"/><rect fill="#303049" x="500.2" y="684.7" width="195.2" height="24.65" shape-rendering="crispEdges"/><rect fill="#232336" x="695.4" y="684.7" width="170.8" height="24.65" shape-rendering="crispEdges"/><rect fill="#232336" x="866.2" y="684.7" width="12.2" height="24.65" shape-rendering="crispEdges"/><rect fill="#1e1e1e" x="878.4" y="684.7" width="48.8" height="24.65" shape-rendering="crispEdges"/><rect fill="#1e1e1e" x="0" y="709.1" width="48.8" height="24.65" shape-rendering="crispEdges"/><rect fill="#232336" x="48.8" y="709.1" width="12.2" height="24.65" shape-rendering="crispEdges"/><rect fill="#232336" x="61" y="709.1" width="158.6" height="24.65" shape-rendering="crispEdges"/><rect fill="#1c1c2c" x="219.6" y="709.1" width="12.2" height="24.65" shape-rendering="crispEdges"/><rect fill="#2f3146" x="231.8" y="709.1" width="24.4" height="24.65" shape-rendering="crispEdges"/><rect fill="#2f3146" x="256.2" y="709.1" width="146.4" height="24.65" shape-rendering="crispEdges"/><rect fill="#2f3146" x="402.6" y="709.1" width="61" height="24.65" shape-rendering="crispEdges"/><rect fill="#2f3146" x="463.6" y="709.1" width="24.4" height="24.65" shape-rendering="crispEdges"/><rect fill="#232336" x="488" y="709.1" width="12.2" height="24.65" shape-rendering="crispEdges"/><rect fill="#303049" x="500.2" y="709.1" width="0" height="24.65" shape-rendering="crispEdges"/><rect fill="#303049" x="500.2" y="709.1" width="195.2" height="24.65" shape-rendering="crispEdges"/><rect fill="#232336" x="695.4" y="709.1" width="170.8" height="24.65" shape-rendering="crispEdges"/><rect fill="#232336" x="866.2" y="709.1" width="12.2" height="24.65" shape-rendering="crispEdges"/><rect fill="#1e1e1e" x="878.4" y="709.1" width="48.8" height="24.65" shape-rendering="crispEdges"/><rect fill="#1e1e1e" x="0" y="733.5" width="48.8" height="24.65" shape-rendering="crispEdges"/><rect fill="#232336" x="48.8" y="733.5" width="12.2" height="24.65" shape-rendering="crispEdges"/><rect fill="#232336" x="61" y="733.5" width="158.6" height="24.65" shape-rendering="crispEdges"/><rect fill="#1c1c2c" x="219.6" y="733.5" width="12.2" height="24.65" shape-rendering="crispEdges"/><rect fill="#2f3146" x="231.8" y="733.5" width="256.2" height="24.65" shape-rendering="crispEdges"/><rect fill="#232336" x="488" y="733.5" width="12.2" height="24.65" shape-rendering="crispEdges"/><rect fill="#303049" x="500.2" y="733.5" width="195.2" height="24.65" shape-rendering="crispEdges"/><rect fill="#232336" x="695.4" y="733.5" width="170.8" height="24.65" shape-rendering="crispEdges"/><rect fill="#232336" x="866.2" y="733.5" width="12.2" height="24.65" shape-rendering="crispEdges"/><rect fill="#1e1e1e" x="878.4" y="733.5" width="48.8" height="24.65" shape-rendering="crispEdges"/><rect fill="#1e1e1e" x="0" y="757.9" width="48.8" height="24.65" shape-rendering="crispEdges"/><rect fill="#232336" x="48.8" y="757.9" width="12.2" height="24.65" shape-rendering="crispEdges"/><rect fill="#232336" x="61" y="757.9" width="805.2" height="24.65" shape-rendering="crispEdges"/><rect fill="#232336" x="866.2" y="757.9" width="12.2" height="24.65" shape-rendering="crispEdges"/><rect fill="#1e1e1e" x="878.4" y="757.9" width="48.8" height="24.65" shape-rendering="crispEdges"/><rect fill="#1e1e1e" x="0" y="782.3" width="48.8" height="24.65" shape-rendering="crispEdges"/><rect fill="#232336" x="48.8" y="782.3" width="12.2" height="24.65" shape-rendering="crispEdges"/><rect fill="#232336" x="61" y="782.3" width="805.2" height="24.65" shape-rendering="crispEdges"/><rect fill="#232336" x="866.2" y="782.3" width="12.2" height="24.65" shape-rendering="crispEdges"/><rect fill="#1e1e1e" x="878.4" y="782.3" width="48.8" height="24.65" shape-rendering="crispEdges"/><rect fill="#1e1e1e" x="0" y="806.7" width="927.2" height="24.65" shape-rendering="crispEdges"/><rect fill="#1e1e1e" x="0" y="831.1" width="927.2" height="24.65" shape-rendering="crispEdges"/>
    <g class="terminal-2795026030-matrix">
    <text class="terminal-2795026030-r2" x="927.2" y="20" textLength="12.2" clip-path="url(#terminal-2795026030-line-0)">
</text><text class="terminal-2795026030-r2" x="927.2" y="44.4" textLength="12.2" clip-path="url(#terminal-2795026030-line-1)">
</text><text class="terminal-2795026030-r3" x="73.2" y="68.8" textLength="768.6" clip-path="url(#terminal-2795026030-line-2)">&#160;&#160;&#160;&#160;&#160;&#160;&#160;&#160;&#160;&#160;&#160;&#160;&#160;&#160;&#160;&#160;&#160;&#160;&#160;&#160;&#160;_&#160;&#160;&#160;&#160;&#160;&#160;&#160;_&#160;&#160;&#160;&#160;___&#160;&#160;&#160;&#160;&#160;&#160;&#160;&#160;&#160;&#160;&#160;&#160;_&#160;&#160;&#160;&#160;&#160;&#160;&#160;_&#160;&#160;&#160;&#160;&#160;</text><text class="terminal-2795026030-r2" x="927.2" y="68.8" textLength="12.2" clip-path="url(#terminal-2795026030-line-2)">
</text><text class="terminal-2795026030-r3" x="73.2" y="93.2" textLength="768.6" clip-path="url(#terminal-2795026030-line-3)">&#160;___&#160;_&#160;__&#160;___&#160;&#160;&#160;___&#160;|&#160;|&#160;&#160;&#160;&#160;&#160;|&#160;|&#160;_(&#160;_&#160;)&#160;___&#160;&#160;&#160;&#160;&#160;&#160;|&#160;|&#160;__&#160;_|&#160;|__&#160;&#160;</text><text class="terminal-2795026030-r2" x="927.2" y="93.2" textLength="12.2" clip-path="url(#terminal-2795026030-line-3)">
</text><text class="terminal-2795026030-r3" x="73.2" y="117.6" textLength="768.6" clip-path="url(#terminal-2795026030-line-4)">/&#160;__|&#160;&#x27;_&#160;`&#160;_&#160;\&#160;/&#160;_&#160;\|&#160;|_____|&#160;|/&#160;/&#160;_&#160;\/&#160;__|_____|&#160;|/&#160;_`&#160;|&#160;&#x27;_&#160;\&#160;</text><text class="terminal-2795026030-r2" x="927.2" y="117.6" textLength="12.2" clip-path="url(#terminal-2795026030-line-4)">
</text><text class="terminal-2795026030-r3" x="73.2" y="142" textLength="768.6" clip-path="url(#terminal-2795026030-line-5)">\__&#160;\&#160;|&#160;|&#160;|&#160;|&#160;|&#160;(_)&#160;|&#160;|_____|&#160;&#160;&#160;&lt;&#160;(_)&#160;\__&#160;\_____|&#160;|&#160;(_|&#160;|&#160;|_)&#160;|</text><text class="terminal-2795026030-r2" x="927.2" y="142" textLength="12.2" clip-path="url(#terminal-2795026030-line-5)">
</text><text class="terminal-2795026030-r3" x="73.2" y="166.4" textLength="768.6" clip-path="url(#terminal-2795026030-line-6)">|___/_|&#160;|_|&#160;|_|\___/|_|&#160;&#160;&#160;&#160;&#160;|_|\_\___/|___/&#160;&#160;&#160;&#160;&#160;|_|\__,_|_.__/&#160;</text><text class="terminal-2795026030-r2" x="927.2" y="166.4" textLength="12.2" clip-path="url(#terminal-2795026030-line-6)">
</text><text class="terminal-2795026030-r2" x="927.2" y="190.8" textLength="12.2" clip-path="url(#terminal-2795026030-line-7)">
</text><text class="terminal-2795026030-r2" x="927.2" y="215.2" textLength="12.2" clip-path="url(#terminal-2795026030-line-8)">
</text><text class="terminal-2795026030-r2" x="927.2" y="239.6" textLength="12.2" clip-path="url(#terminal-2795026030-line-9)">
</text><text class="terminal-2795026030-r4" x="48.8" y="264" textLength="12.2" clip-path="url(#terminal-2795026030-line-10)">╭</text><text class="terminal-2795026030-r4" x="61" y="264" textLength="73.2" clip-path="url(#terminal-2795026030-line-10)">──────</text><text class="terminal-2795026030-r5" x="134.2" y="264" textLength="207.4" clip-path="url(#terminal-2795026030-line-10)">&#160;Select&#160;a&#160;row&#160;to&#160;</text><text class="terminal-2795026030-r6" x="341.6" y="264" textLength="73.2" clip-path="url(#terminal-2795026030-line-10)">modify</text><text class="terminal-2795026030-r5" x="414.8" y="264" textLength="48.8" clip-path="url(#terminal-2795026030-line-10)">&#160;or&#160;</text><text class="terminal-2795026030-r6" x="463.6" y="264" textLength="73.2" clip-path="url(#terminal-2795026030-line-10)">delete</text><text class="terminal-2795026030-r5" x="536.8" y="264" textLength="48.8" clip-path="url(#terminal-2795026030-line-10)">&#160;an&#160;</text><text class="terminal-2795026030-r7" x="585.6" y="264" textLength="97.6" clip-path="url(#terminal-2795026030-line-10)">existing</text><text class="terminal-2795026030-r3" x="695.4" y="264" textLength="85.4" clip-path="url(#terminal-2795026030-line-10)">cluster</text><text class="terminal-2795026030-r4" x="793" y="264" textLength="73.2" clip-path="url(#terminal-2795026030-line-10)">──────</text><text class="terminal-2795026030-r4" x="866.2" y="264" textLength="12.2" clip-path="url(#terminal-2795026030-line-10)">╮</text><text class="terminal-2795026030-r2" x="927.2" y="264" textLength="12.2" clip-path="url(#terminal-2795026030-line-10)">
</text><text class="terminal-2795026030-r4" x="48.8" y="288.4" textLength="12.2" clip-path="url(#terminal-2795026030-line-11)">│</text><text class="terminal-2795026030-r4" x="866.2" y="288.4" textLength="12.2" clip-path="url(#terminal-2795026030-line-11)">│</text><text class="terminal-2795026030-r2" x="927.2" y="288.4" textLength="12.2" clip-path="url(#terminal-2795026030-line-11)">
</text><text class="terminal-2795026030-r4" x="48.8" y="312.8" textLength="12.2" clip-path="url(#terminal-2795026030-line-12)">│</text><text class="terminal-2795026030-r4" x="866.2" y="312.8" textLength="12.2" clip-path="url(#terminal-2795026030-line-12)">│</text><text class="terminal-2795026030-r2" x="927.2" y="312.8" textLength="12.2" clip-path="url(#terminal-2795026030-line-12)">
</text><text class="terminal-2795026030-r4" x="48.8" y="337.2" textLength="12.2" clip-path="url(#terminal-2795026030-line-13)">│</text><text class="terminal-2795026030-r4" x="866.2" y="337.2" textLength="12.2" clip-path="url(#terminal-2795026030-line-13)">│</text><text class="terminal-2795026030-r2" x="927.2" y="337.2" textLength="12.2" clip-path="url(#terminal-2795026030-line-13)">
</text><text class="terminal-2795026030-r4" x="48.8" y="361.6" textLength="12.2" clip-path="url(#terminal-2795026030-line-14)">│</text><text class="terminal-2795026030-r4" x="866.2" y="361.6" textLength="12.2" clip-path="url(#terminal-2795026030-line-14)">│</text><text class="terminal-2795026030-r2" x="927.2" y="361.6" textLength="12.2" clip-path="url(#terminal-2795026030-line-14)">
</text><text class="terminal-2795026030-r4" x="48.8" y="386" textLength="12.2" clip-path="url(#terminal-2795026030-line-15)">│</text><text class="terminal-2795026030-r8" x="280.6" y="386" textLength="256.2" clip-path="url(#terminal-2795026030-line-15)">&#160;&#160;&#160;&#160;&#160;&#160;&#160;Cluster&#160;&#160;&#160;&#160;&#160;&#160;&#160;</text><text class="terminal-2795026030-r8" x="536.8" y="386" textLength="97.6" clip-path="url(#terminal-2795026030-line-15)">&#160;Distro&#160;</text><text class="terminal-2795026030-r4" x="866.2" y="386" textLength="12.2" clip-path="url(#terminal-2795026030-line-15)">│</text><text class="terminal-2795026030-r2" x="927.2" y="386" textLength="12.2" clip-path="url(#terminal-2795026030-line-15)">
</text><text class="terminal-2795026030-r4" x="48.8" y="410.4" textLength="12.2" clip-path="url(#terminal-2795026030-line-16)">│</text><text class="terminal-2795026030-r4" x="866.2" y="410.4" textLength="12.2" clip-path="url(#terminal-2795026030-line-16)">│</text><text class="terminal-2795026030-r2" x="927.2" y="410.4" textLength="12.2" clip-path="url(#terminal-2795026030-line-16)">
</text><text class="terminal-2795026030-r4" x="48.8" y="434.8" textLength="12.2" clip-path="url(#terminal-2795026030-line-17)">│</text><text class="terminal-2795026030-r9" x="280.6" y="434.8" textLength="256.2" clip-path="url(#terminal-2795026030-line-17)">&#160;k3s-cute-wasbeertje&#160;</text><text class="terminal-2795026030-r9" x="536.8" y="434.8" textLength="97.6" clip-path="url(#terminal-2795026030-line-17)">&#160;&#160;k3s&#160;&#160;&#160;</text><text class="terminal-2795026030-r4" x="866.2" y="434.8" textLength="12.2" clip-path="url(#terminal-2795026030-line-17)">│</text><text class="terminal-2795026030-r2" x="927.2" y="434.8" textLength="12.2" clip-path="url(#terminal-2795026030-line-17)">
</text><text class="terminal-2795026030-r4" x="48.8" y="459.2" textLength="12.2" clip-path="url(#terminal-2795026030-line-18)">│</text><text class="terminal-2795026030-r4" x="866.2" y="459.2" textLength="12.2" clip-path="url(#terminal-2795026030-line-18)">│</text><text class="terminal-2795026030-r2" x="927.2" y="459.2" textLength="12.2" clip-path="url(#terminal-2795026030-line-18)">
</text><text class="terminal-2795026030-r4" x="48.8" y="483.6" textLength="12.2" clip-path="url(#terminal-2795026030-line-19)">│</text><text class="terminal-2795026030-r4" x="866.2" y="483.6" textLength="12.2" clip-path="url(#terminal-2795026030-line-19)">│</text><text class="terminal-2795026030-r2" x="927.2" y="483.6" textLength="12.2" clip-path="url(#terminal-2795026030-line-19)">
</text><text class="terminal-2795026030-r4" x="48.8" y="508" textLength="12.2" clip-path="url(#terminal-2795026030-line-20)">│</text><text class="terminal-2795026030-r4" x="866.2" y="508" textLength="12.2" clip-path="url(#terminal-2795026030-line-20)">│</text><text class="terminal-2795026030-r2" x="927.2" y="508" textLength="12.2" clip-path="url(#terminal-2795026030-line-20)">
</text><text class="terminal-2795026030-r4" x="48.8" y="532.4" textLength="12.2" clip-path="url(#terminal-2795026030-line-21)">│</text><text class="terminal-2795026030-r4" x="866.2" y="532.4" textLength="12.2" clip-path="url(#terminal-2795026030-line-21)">│</text><text class="terminal-2795026030-r2" x="927.2" y="532.4" textLength="12.2" clip-path="url(#terminal-2795026030-line-21)">
</text><text class="terminal-2795026030-r4" x="48.8" y="556.8" textLength="12.2" clip-path="url(#terminal-2795026030-line-22)">│</text><text class="terminal-2795026030-r4" x="866.2" y="556.8" textLength="12.2" clip-path="url(#terminal-2795026030-line-22)">│</text><text class="terminal-2795026030-r2" x="927.2" y="556.8" textLength="12.2" clip-path="url(#terminal-2795026030-line-22)">
</text><text class="terminal-2795026030-r4" x="48.8" y="581.2" textLength="12.2" clip-path="url(#terminal-2795026030-line-23)">╰</text><text class="terminal-2795026030-r4" x="61" y="581.2" textLength="805.2" clip-path="url(#terminal-2795026030-line-23)">──────────────────────────────────────────────────────────────────</text><text class="terminal-2795026030-r4" x="866.2" y="581.2" textLength="12.2" clip-path="url(#terminal-2795026030-line-23)">╯</text><text class="terminal-2795026030-r2" x="927.2" y="581.2" textLength="12.2" clip-path="url(#terminal-2795026030-line-23)">
</text><text class="terminal-2795026030-r2" x="927.2" y="605.6" textLength="12.2" clip-path="url(#terminal-2795026030-line-24)">
</text><text class="terminal-2795026030-r2" x="927.2" y="630" textLength="12.2" clip-path="url(#terminal-2795026030-line-25)">
</text><text class="terminal-2795026030-r4" x="48.8" y="654.4" textLength="12.2" clip-path="url(#terminal-2795026030-line-26)">╭</text><text class="terminal-2795026030-r4" x="61" y="654.4" textLength="146.4" clip-path="url(#terminal-2795026030-line-26)">────────────</text><text class="terminal-2795026030-r6" x="219.6" y="654.4" textLength="73.2" clip-path="url(#terminal-2795026030-line-26)">Create</text><text class="terminal-2795026030-r5" x="292.8" y="654.4" textLength="36.6" clip-path="url(#terminal-2795026030-line-26)">&#160;a&#160;</text><text class="terminal-2795026030-r7" x="329.4" y="654.4" textLength="36.6" clip-path="url(#terminal-2795026030-line-26)">new</text><text class="terminal-2795026030-r3" x="378.2" y="654.4" textLength="85.4" clip-path="url(#terminal-2795026030-line-26)">cluster</text><text class="terminal-2795026030-r5" x="463.6" y="654.4" textLength="256.2" clip-path="url(#terminal-2795026030-line-26)">&#160;with&#160;the&#160;name&#160;below&#160;</text><text class="terminal-2795026030-r4" x="719.8" y="654.4" textLength="146.4" clip-path="url(#terminal-2795026030-line-26)">────────────</text><text class="terminal-2795026030-r4" x="866.2" y="654.4" textLength="12.2" clip-path="url(#terminal-2795026030-line-26)">╮</text><text class="terminal-2795026030-r2" x="927.2" y="654.4" textLength="12.2" clip-path="url(#terminal-2795026030-line-26)">
</text><text class="terminal-2795026030-r4" x="48.8" y="678.8" textLength="12.2" clip-path="url(#terminal-2795026030-line-27)">│</text><text class="terminal-2795026030-r4" x="866.2" y="678.8" textLength="12.2" clip-path="url(#terminal-2795026030-line-27)">│</text><text class="terminal-2795026030-r2" x="927.2" y="678.8" textLength="12.2" clip-path="url(#terminal-2795026030-line-27)">
</text><text class="terminal-2795026030-r4" x="48.8" y="703.2" textLength="12.2" clip-path="url(#terminal-2795026030-line-28)">│</text><text class="terminal-2795026030-r9" x="219.6" y="703.2" textLength="12.2" clip-path="url(#terminal-2795026030-line-28)">▊</text><text class="terminal-2795026030-r11" x="231.8" y="703.2" textLength="256.2" clip-path="url(#terminal-2795026030-line-28)">▔▔▔▔▔▔▔▔▔▔▔▔▔▔▔▔▔▔▔▔▔</text><text class="terminal-2795026030-r11" x="488" y="703.2" textLength="12.2" clip-path="url(#terminal-2795026030-line-28)">▎</text><text class="terminal-2795026030-r12" x="500.2" y="703.2" textLength="195.2" clip-path="url(#terminal-2795026030-line-28)">▔▔▔▔▔▔▔▔▔▔▔▔▔▔▔▔</text><text class="terminal-2795026030-r4" x="866.2" y="703.2" textLength="12.2" clip-path="url(#terminal-2795026030-line-28)">│</text><text class="terminal-2795026030-r2" x="927.2" y="703.2" textLength="12.2" clip-path="url(#terminal-2795026030-line-28)">
</text><text class="terminal-2795026030-r4" x="48.8" y="727.6" textLength="12.2" clip-path="url(#terminal-2795026030-line-29)">│</text><text class="terminal-2795026030-r9" x="219.6" y="727.6" textLength="12.2" clip-path="url(#terminal-2795026030-line-29)">▊</text><text class="terminal-2795026030-r13" x="256.2" y="727.6" textLength="146.4" clip-path="url(#terminal-2795026030-line-29)">mooie-kitten</text><text class="terminal-2795026030-r11" x="488" y="727.6" textLength="12.2" clip-path="url(#terminal-2795026030-line-29)">▎</text><text class="terminal-2795026030-r14" x="500.2" y="727.6" textLength="183" clip-path="url(#terminal-2795026030-line-29)">&#160;✨&#160;New&#160;Cluster&#160;</text><text class="terminal-2795026030-r4" x="866.2" y="727.6" textLength="12.2" clip-path="url(#terminal-2795026030-line-29)">│</text><text class="terminal-2795026030-r2" x="927.2" y="727.6" textLength="12.2" clip-path="url(#terminal-2795026030-line-29)">
</text><text class="terminal-2795026030-r4" x="48.8" y="752" textLength="12.2" clip-path="url(#terminal-2795026030-line-30)">│</text><text class="terminal-2795026030-r9" x="219.6" y="752" textLength="12.2" clip-path="url(#terminal-2795026030-line-30)">▊</text><text class="terminal-2795026030-r11" x="231.8" y="752" textLength="256.2" clip-path="url(#terminal-2795026030-line-30)">▁▁▁▁▁▁▁▁▁▁▁▁▁▁▁▁▁▁▁▁▁</text><text class="terminal-2795026030-r11" x="488" y="752" textLength="12.2" clip-path="url(#terminal-2795026030-line-30)">▎</text><text class="terminal-2795026030-r15" x="500.2" y="752" textLength="195.2" clip-path="url(#terminal-2795026030-line-30)">▁▁▁▁▁▁▁▁▁▁▁▁▁▁▁▁</text><text class="terminal-2795026030-r4" x="866.2" y="752" textLength="12.2" clip-path="url(#terminal-2795026030-line-30)">│</text><text class="terminal-2795026030-r2" x="927.2" y="752" textLength="12.2" clip-path="url(#terminal-2795026030-line-30)">
</text><text class="terminal-2795026030-r4" x="48.8" y="776.4" textLength="12.2" clip-path="url(#terminal-2795026030-line-31)">│</text><text class="terminal-2795026030-r4" x="866.2" y="776.4" textLength="12.2" clip-path="url(#terminal-2795026030-line-31)">│</text><text class="terminal-2795026030-r2" x="927.2" y="776.4" textLength="12.2" clip-path="url(#terminal-2795026030-line-31)">
</text><text class="terminal-2795026030-r4" x="48.8" y="800.8" textLength="12.2" clip-path="url(#terminal-2795026030-line-32)">╰</text><text class="terminal-2795026030-r4" x="61" y="800.8" textLength="805.2" clip-path="url(#terminal-2795026030-line-32)">──────────────────────────────────────────────────────────────────</text><text class="terminal-2795026030-r4" x="866.2" y="800.8" textLength="12.2" clip-path="url(#terminal-2795026030-line-32)">╯</text><text class="terminal-2795026030-r2" x="927.2" y="800.8" textLength="12.2" clip-path="url(#terminal-2795026030-line-32)">
</text><text class="terminal-2795026030-r2" x="927.2" y="825.2" textLength="12.2" clip-path="url(#terminal-2795026030-line-33)">
</text>
    </g>
    </g>
</svg>
