<svg class="rich-terminal" viewBox="0 0 1080 1196.8" xmlns="http://www.w3.org/2000/svg">
    <!-- Generated with Rich https://www.textualize.io -->
    <style>

    @font-face {
        font-family: "Fira Code";
        src: local("FiraCode-Regular"),
                url("https://cdnjs.cloudflare.com/ajax/libs/firacode/6.2.0/woff2/FiraCode-Regular.woff2") format("woff2"),
                url("https://cdnjs.cloudflare.com/ajax/libs/firacode/6.2.0/woff/FiraCode-Regular.woff") format("woff");
        font-style: normal;
        font-weight: 400;
    }
    @font-face {
        font-family: "Fira Code";
        src: local("FiraCode-Bold"),
                url("https://cdnjs.cloudflare.com/ajax/libs/firacode/6.2.0/woff2/FiraCode-Bold.woff2") format("woff2"),
                url("https://cdnjs.cloudflare.com/ajax/libs/firacode/6.2.0/woff/FiraCode-Bold.woff") format("woff");
        font-style: bold;
        font-weight: 700;
    }

    .terminal-3540602093-matrix {
        font-family: Fira Code, monospace;
        font-size: 20px;
        line-height: 24.4px;
        font-variant-east-asian: full-width;
    }

    .terminal-3540602093-title {
        font-size: 18px;
        font-weight: bold;
        font-family: arial;
    }

    .terminal-3540602093-r1 { fill: #e1e1e1 }
.terminal-3540602093-r2 { fill: #c5c8c6 }
.terminal-3540602093-r3 { fill: #c1ff87 }
.terminal-3540602093-r4 { fill: #5f87ff }
.terminal-3540602093-r5 { fill: #5cc9fd }
.terminal-3540602093-r6 { fill: #ffaff9 }
.terminal-3540602093-r7 { fill: #5cc9fd;font-style: italic; }
.terminal-3540602093-r8 { fill: #e2e2e4 }
.terminal-3540602093-r9 { fill: #232336 }
.terminal-3540602093-r10 { fill: #80bb4d }
.terminal-3540602093-r11 { fill: #414767 }
.terminal-3540602093-r12 { fill: #cbcbd0 }
.terminal-3540602093-r13 { fill: #1e1e1e }
.terminal-3540602093-r14 { fill: #7aa2f7;font-weight: bold }
.terminal-3540602093-r15 { fill: #2e2e38 }
    </style>

    <defs>
    <clipPath id="terminal-3540602093-clip-terminal">
      <rect x="0" y="0" width="1060.3999999999999" height="1145.8" />
    </clipPath>
    <clipPath id="terminal-3540602093-line-0">
    <rect x="0" y="1.5" width="1061.4" height="24.65"/>
            </clipPath>
<clipPath id="terminal-3540602093-line-1">
    <rect x="0" y="25.9" width="1061.4" height="24.65"/>
            </clipPath>
<clipPath id="terminal-3540602093-line-2">
    <rect x="0" y="50.3" width="1061.4" height="24.65"/>
            </clipPath>
<clipPath id="terminal-3540602093-line-3">
    <rect x="0" y="74.7" width="1061.4" height="24.65"/>
            </clipPath>
<clipPath id="terminal-3540602093-line-4">
    <rect x="0" y="99.1" width="1061.4" height="24.65"/>
            </clipPath>
<clipPath id="terminal-3540602093-line-5">
    <rect x="0" y="123.5" width="1061.4" height="24.65"/>
            </clipPath>
<clipPath id="terminal-3540602093-line-6">
    <rect x="0" y="147.9" width="1061.4" height="24.65"/>
            </clipPath>
<clipPath id="terminal-3540602093-line-7">
    <rect x="0" y="172.3" width="1061.4" height="24.65"/>
            </clipPath>
<clipPath id="terminal-3540602093-line-8">
    <rect x="0" y="196.7" width="1061.4" height="24.65"/>
            </clipPath>
<clipPath id="terminal-3540602093-line-9">
    <rect x="0" y="221.1" width="1061.4" height="24.65"/>
            </clipPath>
<clipPath id="terminal-3540602093-line-10">
    <rect x="0" y="245.5" width="1061.4" height="24.65"/>
            </clipPath>
<clipPath id="terminal-3540602093-line-11">
    <rect x="0" y="269.9" width="1061.4" height="24.65"/>
            </clipPath>
<clipPath id="terminal-3540602093-line-12">
    <rect x="0" y="294.3" width="1061.4" height="24.65"/>
            </clipPath>
<clipPath id="terminal-3540602093-line-13">
    <rect x="0" y="318.7" width="1061.4" height="24.65"/>
            </clipPath>
<clipPath id="terminal-3540602093-line-14">
    <rect x="0" y="343.1" width="1061.4" height="24.65"/>
            </clipPath>
<clipPath id="terminal-3540602093-line-15">
    <rect x="0" y="367.5" width="1061.4" height="24.65"/>
            </clipPath>
<clipPath id="terminal-3540602093-line-16">
    <rect x="0" y="391.9" width="1061.4" height="24.65"/>
            </clipPath>
<clipPath id="terminal-3540602093-line-17">
    <rect x="0" y="416.3" width="1061.4" height="24.65"/>
            </clipPath>
<clipPath id="terminal-3540602093-line-18">
    <rect x="0" y="440.7" width="1061.4" height="24.65"/>
            </clipPath>
<clipPath id="terminal-3540602093-line-19">
    <rect x="0" y="465.1" width="1061.4" height="24.65"/>
            </clipPath>
<clipPath id="terminal-3540602093-line-20">
    <rect x="0" y="489.5" width="1061.4" height="24.65"/>
            </clipPath>
<clipPath id="terminal-3540602093-line-21">
    <rect x="0" y="513.9" width="1061.4" height="24.65"/>
            </clipPath>
<clipPath id="terminal-3540602093-line-22">
    <rect x="0" y="538.3" width="1061.4" height="24.65"/>
            </clipPath>
<clipPath id="terminal-3540602093-line-23">
    <rect x="0" y="562.7" width="1061.4" height="24.65"/>
            </clipPath>
<clipPath id="terminal-3540602093-line-24">
    <rect x="0" y="587.1" width="1061.4" height="24.65"/>
            </clipPath>
<clipPath id="terminal-3540602093-line-25">
    <rect x="0" y="611.5" width="1061.4" height="24.65"/>
            </clipPath>
<clipPath id="terminal-3540602093-line-26">
    <rect x="0" y="635.9" width="1061.4" height="24.65"/>
            </clipPath>
<clipPath id="terminal-3540602093-line-27">
    <rect x="0" y="660.3" width="1061.4" height="24.65"/>
            </clipPath>
<clipPath id="terminal-3540602093-line-28">
    <rect x="0" y="684.7" width="1061.4" height="24.65"/>
            </clipPath>
<clipPath id="terminal-3540602093-line-29">
    <rect x="0" y="709.1" width="1061.4" height="24.65"/>
            </clipPath>
<clipPath id="terminal-3540602093-line-30">
    <rect x="0" y="733.5" width="1061.4" height="24.65"/>
            </clipPath>
<clipPath id="terminal-3540602093-line-31">
    <rect x="0" y="757.9" width="1061.4" height="24.65"/>
            </clipPath>
<clipPath id="terminal-3540602093-line-32">
    <rect x="0" y="782.3" width="1061.4" height="24.65"/>
            </clipPath>
<clipPath id="terminal-3540602093-line-33">
    <rect x="0" y="806.7" width="1061.4" height="24.65"/>
            </clipPath>
<clipPath id="terminal-3540602093-line-34">
    <rect x="0" y="831.1" width="1061.4" height="24.65"/>
            </clipPath>
<clipPath id="terminal-3540602093-line-35">
    <rect x="0" y="855.5" width="1061.4" height="24.65"/>
            </clipPath>
<clipPath id="terminal-3540602093-line-36">
    <rect x="0" y="879.9" width="1061.4" height="24.65"/>
            </clipPath>
<clipPath id="terminal-3540602093-line-37">
    <rect x="0" y="904.3" width="1061.4" height="24.65"/>
            </clipPath>
<clipPath id="terminal-3540602093-line-38">
    <rect x="0" y="928.7" width="1061.4" height="24.65"/>
            </clipPath>
<clipPath id="terminal-3540602093-line-39">
    <rect x="0" y="953.1" width="1061.4" height="24.65"/>
            </clipPath>
<clipPath id="terminal-3540602093-line-40">
    <rect x="0" y="977.5" width="1061.4" height="24.65"/>
            </clipPath>
<clipPath id="terminal-3540602093-line-41">
    <rect x="0" y="1001.9" width="1061.4" height="24.65"/>
            </clipPath>
<clipPath id="terminal-3540602093-line-42">
    <rect x="0" y="1026.3" width="1061.4" height="24.65"/>
            </clipPath>
<clipPath id="terminal-3540602093-line-43">
    <rect x="0" y="1050.7" width="1061.4" height="24.65"/>
            </clipPath>
<clipPath id="terminal-3540602093-line-44">
    <rect x="0" y="1075.1" width="1061.4" height="24.65"/>
            </clipPath>
<clipPath id="terminal-3540602093-line-45">
    <rect x="0" y="1099.5" width="1061.4" height="24.65"/>
            </clipPath>
    </defs>

    <rect fill="#292929" stroke="rgba(255,255,255,0.35)" stroke-width="1" x="1" y="1" width="1078" height="1194.8" rx="8"/><text class="terminal-3540602093-title" fill="#c5c8c6" text-anchor="middle" x="539" y="27">BaseApp</text>
            <g transform="translate(26,22)">
            <circle cx="0" cy="0" r="7" fill="#ff5f57"/>
            <circle cx="22" cy="0" r="7" fill="#febc2e"/>
            <circle cx="44" cy="0" r="7" fill="#28c840"/>
            </g>
        
    <g transform="translate(9, 41)" clip-path="url(#terminal-3540602093-clip-terminal)">
    <rect fill="#1e1e1e" x="0" y="1.5" width="1061.4" height="24.65" shape-rendering="crispEdges"/><rect fill="#1e1e1e" x="0" y="25.9" width="1061.4" height="24.65" shape-rendering="crispEdges"/><rect fill="#1e1e1e" x="0" y="50.3" width="1061.4" height="24.65" shape-rendering="crispEdges"/><rect fill="#1e1e1e" x="0" y="74.7" width="1061.4" height="24.65" shape-rendering="crispEdges"/><rect fill="#1e1e1e" x="0" y="99.1" width="1061.4" height="24.65" shape-rendering="crispEdges"/><rect fill="#1e1e1e" x="0" y="123.5" width="1061.4" height="24.65" shape-rendering="crispEdges"/><rect fill="#1e1e1e" x="0" y="147.9" width="1061.4" height="24.65" shape-rendering="crispEdges"/><rect fill="#1e1e1e" x="0" y="172.3" width="1061.4" height="24.65" shape-rendering="crispEdges"/><rect fill="#1e1e1e" x="0" y="196.7" width="1061.4" height="24.65" shape-rendering="crispEdges"/><rect fill="#1e1e1e" x="0" y="221.1" width="1061.4" height="24.65" shape-rendering="crispEdges"/><rect fill="#1e1e1e" x="0" y="245.5" width="1061.4" height="24.65" shape-rendering="crispEdges"/><rect fill="#1e1e1e" x="0" y="269.9" width="1061.4" height="24.65" shape-rendering="crispEdges"/><rect fill="#1e1e1e" x="0" y="294.3" width="1061.4" height="24.65" shape-rendering="crispEdges"/><rect fill="#1e1e1e" x="0" y="318.7" width="1061.4" height="24.65" shape-rendering="crispEdges"/><rect fill="#1e1e1e" x="0" y="343.1" width="109.8" height="24.65" shape-rendering="crispEdges"/><rect fill="#1e1e1e" x="109.8" y="343.1" width="841.8" height="24.65" shape-rendering="crispEdges"/><rect fill="#1e1e1e" x="951.6" y="343.1" width="109.8" height="24.65" shape-rendering="crispEdges"/><rect fill="#1e1e1e" x="0" y="367.5" width="109.8" height="24.65" shape-rendering="crispEdges"/><rect fill="#1e1e1e" x="109.8" y="367.5" width="36.6" height="24.65" shape-rendering="crispEdges"/><rect fill="#1e1e1e" x="146.4" y="367.5" width="768.6" height="24.65" shape-rendering="crispEdges"/><rect fill="#1e1e1e" x="915" y="367.5" width="36.6" height="24.65" shape-rendering="crispEdges"/><rect fill="#1e1e1e" x="951.6" y="367.5" width="109.8" height="24.65" shape-rendering="crispEdges"/><rect fill="#1e1e1e" x="0" y="391.9" width="109.8" height="24.65" shape-rendering="crispEdges"/><rect fill="#1e1e1e" x="109.8" y="391.9" width="36.6" height="24.65" shape-rendering="crispEdges"/><rect fill="#1e1e1e" x="146.4" y="391.9" width="768.6" height="24.65" shape-rendering="crispEdges"/><rect fill="#1e1e1e" x="915" y="391.9" width="36.6" height="24.65" shape-rendering="crispEdges"/><rect fill="#1e1e1e" x="951.6" y="391.9" width="109.8" height="24.65" shape-rendering="crispEdges"/><rect fill="#1e1e1e" x="0" y="416.3" width="109.8" height="24.65" shape-rendering="crispEdges"/><rect fill="#1e1e1e" x="109.8" y="416.3" width="36.6" height="24.65" shape-rendering="crispEdges"/><rect fill="#1e1e1e" x="146.4" y="416.3" width="768.6" height="24.65" shape-rendering="crispEdges"/><rect fill="#1e1e1e" x="915" y="416.3" width="36.6" height="24.65" shape-rendering="crispEdges"/><rect fill="#1e1e1e" x="951.6" y="416.3" width="109.8" height="24.65" shape-rendering="crispEdges"/><rect fill="#1e1e1e" x="0" y="440.7" width="109.8" height="24.65" shape-rendering="crispEdges"/><rect fill="#1e1e1e" x="109.8" y="440.7" width="36.6" height="24.65" shape-rendering="crispEdges"/><rect fill="#1e1e1e" x="146.4" y="440.7" width="768.6" height="24.65" shape-rendering="crispEdges"/><rect fill="#1e1e1e" x="915" y="440.7" width="36.6" height="24.65" shape-rendering="crispEdges"/><rect fill="#1e1e1e" x="951.6" y="440.7" width="109.8" height="24.65" shape-rendering="crispEdges"/><rect fill="#1e1e1e" x="0" y="465.1" width="109.8" height="24.65" shape-rendering="crispEdges"/><rect fill="#1e1e1e" x="109.8" y="465.1" width="36.6" height="24.65" shape-rendering="crispEdges"/><rect fill="#1e1e1e" x="146.4" y="465.1" width="768.6" height="24.65" shape-rendering="crispEdges"/><rect fill="#1e1e1e" x="915" y="465.1" width="36.6" height="24.65" shape-rendering="crispEdges"/><rect fill="#1e1e1e" x="951.6" y="465.1" width="109.8" height="24.65" shape-rendering="crispEdges"/><rect fill="#1e1e1e" x="0" y="489.5" width="109.8" height="24.65" shape-rendering="crispEdges"/><rect fill="#1e1e1e" x="109.8" y="489.5" width="36.6" height="24.65" shape-rendering="crispEdges"/><rect fill="#1e1e1e" x="146.4" y="489.5" width="768.6" height="24.65" shape-rendering="crispEdges"/><rect fill="#1e1e1e" x="915" y="489.5" width="36.6" height="24.65" shape-rendering="crispEdges"/><rect fill="#1e1e1e" x="951.6" y="489.5" width="109.8" height="24.65" shape-rendering="crispEdges"/><rect fill="#1e1e1e" x="0" y="513.9" width="109.8" height="24.65" shape-rendering="crispEdges"/><rect fill="#1e1e1e" x="109.8" y="513.9" width="841.8" height="24.65" shape-rendering="crispEdges"/><rect fill="#1e1e1e" x="951.6" y="513.9" width="109.8" height="24.65" shape-rendering="crispEdges"/><rect fill="#1e1e1e" x="0" y="538.3" width="109.8" height="24.65" shape-rendering="crispEdges"/><rect fill="#1e1e1e" x="109.8" y="538.3" width="841.8" height="24.65" shape-rendering="crispEdges"/><rect fill="#1e1e1e" x="951.6" y="538.3" width="109.8" height="24.65" shape-rendering="crispEdges"/><rect fill="#1e1e1e" x="0" y="562.7" width="109.8" height="24.65" shape-rendering="crispEdges"/><rect fill="#232336" x="109.8" y="562.7" width="12.2" height="24.65" shape-rendering="crispEdges"/><rect fill="#232336" x="122" y="562.7" width="146.4" height="24.65" shape-rendering="crispEdges"/><rect fill="#232336" x="268.4" y="562.7" width="12.2" height="24.65" shape-rendering="crispEdges"/><rect fill="#232336" x="280.6" y="562.7" width="73.2" height="24.65" shape-rendering="crispEdges"/><rect fill="#232336" x="353.8" y="562.7" width="36.6" height="24.65" shape-rendering="crispEdges"/><rect fill="#232336" x="390.4" y="562.7" width="36.6" height="24.65" shape-rendering="crispEdges"/><rect fill="#232336" x="427" y="562.7" width="12.2" height="24.65" shape-rendering="crispEdges"/><rect fill="#232336" x="439.2" y="562.7" width="85.4" height="24.65" shape-rendering="crispEdges"/><rect fill="#232336" x="524.6" y="562.7" width="256.2" height="24.65" shape-rendering="crispEdges"/><rect fill="#232336" x="780.8" y="562.7" width="158.6" height="24.65" shape-rendering="crispEdges"/><rect fill="#232336" x="939.4" y="562.7" width="12.2" height="24.65" shape-rendering="crispEdges"/><rect fill="#1e1e1e" x="951.6" y="562.7" width="109.8" height="24.65" shape-rendering="crispEdges"/><rect fill="#1e1e1e" x="0" y="587.1" width="109.8" height="24.65" shape-rendering="crispEdges"/><rect fill="#232336" x="109.8" y="587.1" width="12.2" height="24.65" shape-rendering="crispEdges"/><rect fill="#232336" x="122" y="587.1" width="817.4" height="24.65" shape-rendering="crispEdges"/><rect fill="#232336" x="939.4" y="587.1" width="12.2" height="24.65" shape-rendering="crispEdges"/><rect fill="#1e1e1e" x="951.6" y="587.1" width="109.8" height="24.65" shape-rendering="crispEdges"/><rect fill="#1e1e1e" x="0" y="611.5" width="109.8" height="24.65" shape-rendering="crispEdges"/><rect fill="#232336" x="109.8" y="611.5" width="12.2" height="24.65" shape-rendering="crispEdges"/><rect fill="#232336" x="122" y="611.5" width="817.4" height="24.65" shape-rendering="crispEdges"/><rect fill="#232336" x="939.4" y="611.5" width="12.2" height="24.65" shape-rendering="crispEdges"/><rect fill="#1e1e1e" x="951.6" y="611.5" width="109.8" height="24.65" shape-rendering="crispEdges"/><rect fill="#1e1e1e" x="0" y="635.9" width="109.8" height="24.65" shape-rendering="crispEdges"/><rect fill="#232336" x="109.8" y="635.9" width="12.2" height="24.65" shape-rendering="crispEdges"/><rect fill="#232336" x="122" y="635.9" width="170.8" height="24.65" shape-rendering="crispEdges"/><rect fill="#80bb4d" x="292.8" y="635.9" width="12.2" height="24.65" shape-rendering="crispEdges"/><rect fill="#2f3146" x="305" y="635.9" width="256.2" height="24.65" shape-rendering="crispEdges"/><rect fill="#232336" x="561.2" y="635.9" width="12.2" height="24.65" shape-rendering="crispEdges"/><rect fill="#303049" x="573.4" y="635.9" width="195.2" height="24.65" shape-rendering="crispEdges"/><rect fill="#232336" x="768.6" y="635.9" width="170.8" height="24.65" shape-rendering="crispEdges"/><rect fill="#232336" x="939.4" y="635.9" width="12.2" height="24.65" shape-rendering="crispEdges"/><rect fill="#1e1e1e" x="951.6" y="635.9" width="109.8" height="24.65" shape-rendering="crispEdges"/><rect fill="#1e1e1e" x="0" y="660.3" width="109.8" height="24.65" shape-rendering="crispEdges"/><rect fill="#232336" x="109.8" y="660.3" width="12.2" height="24.65" shape-rendering="crispEdges"/><rect fill="#232336" x="122" y="660.3" width="170.8" height="24.65" shape-rendering="crispEdges"/><rect fill="#80bb4d" x="292.8" y="660.3" width="12.2" height="24.65" shape-rendering="crispEdges"/><rect fill="#2f3146" x="305" y="660.3" width="24.4" height="24.65" shape-rendering="crispEdges"/><rect fill="#2f3146" x="329.4" y="660.3" width="195.2" height="24.65" shape-rendering="crispEdges"/><rect fill="#e1e1e1" x="524.6" y="660.3" width="12.2" height="24.65" shape-rendering="crispEdges"/><rect fill="#2f3146" x="536.8" y="660.3" width="24.4" height="24.65" shape-rendering="crispEdges"/><rect fill="#232336" x="561.2" y="660.3" width="12.2" height="24.65" shape-rendering="crispEdges"/><rect fill="#303049" x="573.4" y="660.3" width="12.2" height="24.65" shape-rendering="crispEdges"/><rect fill="#303049" x="585.6" y="660.3" width="170.8" height="24.65" shape-rendering="crispEdges"/><rect fill="#303049" x="756.4" y="660.3" width="12.2" height="24.65" shape-rendering="crispEdges"/><rect fill="#232336" x="768.6" y="660.3" width="170.8" height="24.65" shape-rendering="crispEdges"/><rect fill="#232336" x="939.4" y="660.3" width="12.2" height="24.65" shape-rendering="crispEdges"/><rect fill="#1e1e1e" x="951.6" y="660.3" width="109.8" height="24.65" shape-rendering="crispEdges"/><rect fill="#1e1e1e" x="0" y="684.7" width="109.8" height="24.65" shape-rendering="crispEdges"/><rect fill="#232336" x="109.8" y="684.7" width="12.2" height="24.65" shape-rendering="crispEdges"/><rect fill="#232336" x="122" y="684.7" width="170.8" height="24.65" shape-rendering="crispEdges"/><rect fill="#80bb4d" x="292.8" y="684.7" width="12.2" height="24.65" shape-rendering="crispEdges"/><rect fill="#2f3146" x="305" y="684.7" width="256.2" height="24.65" shape-rendering="crispEdges"/><rect fill="#232336" x="561.2" y="684.7" width="12.2" height="24.65" shape-rendering="crispEdges"/><rect fill="#303049" x="573.4" y="684.7" width="195.2" height="24.65" shape-rendering="crispEdges"/><rect fill="#232336" x="768.6" y="684.7" width="170.8" height="24.65" shape-rendering="crispEdges"/><rect fill="#232336" x="939.4" y="684.7" width="12.2" height="24.65" shape-rendering="crispEdges"/><rect fill="#1e1e1e" x="951.6" y="684.7" width="109.8" height="24.65" shape-rendering="crispEdges"/><rect fill="#1e1e1e" x="0" y="709.1" width="109.8" height="24.65" shape-rendering="crispEdges"/><rect fill="#232336" x="109.8" y="709.1" width="12.2" height="24.65" shape-rendering="crispEdges"/><rect fill="#232336" x="122" y="709.1" width="817.4" height="24.65" shape-rendering="crispEdges"/><rect fill="#232336" x="939.4" y="709.1" width="12.2" height="24.65" shape-rendering="crispEdges"/><rect fill="#1e1e1e" x="951.6" y="709.1" width="109.8" height="24.65" shape-rendering="crispEdges"/><rect fill="#1e1e1e" x="0" y="733.5" width="109.8" height="24.65" shape-rendering="crispEdges"/><rect fill="#232336" x="109.8" y="733.5" width="12.2" height="24.65" shape-rendering="crispEdges"/><rect fill="#232336" x="122" y="733.5" width="817.4" height="24.65" shape-rendering="crispEdges"/><rect fill="#232336" x="939.4" y="733.5" width="12.2" height="24.65" shape-rendering="crispEdges"/><rect fill="#1e1e1e" x="951.6" y="733.5" width="109.8" height="24.65" shape-rendering="crispEdges"/><rect fill="#1e1e1e" x="0" y="757.9" width="109.8" height="24.65" shape-rendering="crispEdges"/><rect fill="#1e1e1e" x="109.8" y="757.9" width="841.8" height="24.65" shape-rendering="crispEdges"/><rect fill="#1e1e1e" x="951.6" y="757.9" width="109.8" height="24.65" shape-rendering="crispEdges"/><rect fill="#1e1e1e" x="0" y="782.3" width="1061.4" height="24.65" shape-rendering="crispEdges"/><rect fill="#1e1e1e" x="0" y="806.7" width="1061.4" height="24.65" shape-rendering="crispEdges"/><rect fill="#1e1e1e" x="0" y="831.1" width="1061.4" height="24.65" shape-rendering="crispEdges"/><rect fill="#1e1e1e" x="0" y="855.5" width="1061.4" height="24.65" shape-rendering="crispEdges"/><rect fill="#1e1e1e" x="0" y="879.9" width="1061.4" height="24.65" shape-rendering="crispEdges"/><rect fill="#1e1e1e" x="0" y="904.3" width="1061.4" height="24.65" shape-rendering="crispEdges"/><rect fill="#1e1e1e" x="0" y="928.7" width="1061.4" height="24.65" shape-rendering="crispEdges"/><rect fill="#1e1e1e" x="0" y="953.1" width="1061.4" height="24.65" shape-rendering="crispEdges"/><rect fill="#1e1e1e" x="0" y="977.5" width="1061.4" height="24.65" shape-rendering="crispEdges"/><rect fill="#1e1e1e" x="0" y="1001.9" width="1061.4" height="24.65" shape-rendering="crispEdges"/><rect fill="#1e1e1e" x="0" y="1026.3" width="1061.4" height="24.65" shape-rendering="crispEdges"/><rect fill="#1e1e1e" x="0" y="1050.7" width="1061.4" height="24.65" shape-rendering="crispEdges"/><rect fill="#1e1e1e" x="0" y="1075.1" width="1061.4" height="24.65" shape-rendering="crispEdges"/><rect fill="#1e1e1e" x="0" y="1099.5" width="1061.4" height="24.65" shape-rendering="crispEdges"/><rect fill="#1e1e1e" x="0" y="1123.9" width="1061.4" height="24.65" shape-rendering="crispEdges"/>
    <g class="terminal-3540602093-matrix">
    <text class="terminal-3540602093-r2" x="1061.4" y="20" textLength="12.2" clip-path="url(#terminal-3540602093-line-0)">
</text><text class="terminal-3540602093-r2" x="1061.4" y="44.4" textLength="12.2" clip-path="url(#terminal-3540602093-line-1)">
</text><text class="terminal-3540602093-r2" x="1061.4" y="68.8" textLength="12.2" clip-path="url(#terminal-3540602093-line-2)">
</text><text class="terminal-3540602093-r2" x="1061.4" y="93.2" textLength="12.2" clip-path="url(#terminal-3540602093-line-3)">
</text><text class="terminal-3540602093-r2" x="1061.4" y="117.6" textLength="12.2" clip-path="url(#terminal-3540602093-line-4)">
</text><text class="terminal-3540602093-r2" x="1061.4" y="142" textLength="12.2" clip-path="url(#terminal-3540602093-line-5)">
</text><text class="terminal-3540602093-r2" x="1061.4" y="166.4" textLength="12.2" clip-path="url(#terminal-3540602093-line-6)">
</text><text class="terminal-3540602093-r2" x="1061.4" y="190.8" textLength="12.2" clip-path="url(#terminal-3540602093-line-7)">
</text><text class="terminal-3540602093-r2" x="1061.4" y="215.2" textLength="12.2" clip-path="url(#terminal-3540602093-line-8)">
</text><text class="terminal-3540602093-r2" x="1061.4" y="239.6" textLength="12.2" clip-path="url(#terminal-3540602093-line-9)">
</text><text class="terminal-3540602093-r2" x="1061.4" y="264" textLength="12.2" clip-path="url(#terminal-3540602093-line-10)">
</text><text class="terminal-3540602093-r2" x="1061.4" y="288.4" textLength="12.2" clip-path="url(#terminal-3540602093-line-11)">
</text><text class="terminal-3540602093-r2" x="1061.4" y="312.8" textLength="12.2" clip-path="url(#terminal-3540602093-line-12)">
</text><text class="terminal-3540602093-r2" x="1061.4" y="337.2" textLength="12.2" clip-path="url(#terminal-3540602093-line-13)">
</text><text class="terminal-3540602093-r2" x="1061.4" y="361.6" textLength="12.2" clip-path="url(#terminal-3540602093-line-14)">
</text><text class="terminal-3540602093-r3" x="146.4" y="386" textLength="768.6" clip-path="url(#terminal-3540602093-line-15)">&#160;&#160;&#160;&#160;&#160;&#160;&#160;&#160;&#160;&#160;&#160;&#160;&#160;&#160;&#160;&#160;&#160;&#160;&#160;&#160;&#160;_&#160;&#160;&#160;&#160;&#160;&#160;&#160;_&#160;&#160;&#160;&#160;___&#160;&#160;&#160;&#160;&#160;&#160;&#160;&#160;&#160;&#160;&#160;&#160;_&#160;&#160;&#160;&#160;&#160;&#160;&#160;_&#160;&#160;&#160;&#160;&#160;</text><text class="terminal-3540602093-r2" x="1061.4" y="386" textLength="12.2" clip-path="url(#terminal-3540602093-line-15)">
</text><text class="terminal-3540602093-r3" x="146.4" y="410.4" textLength="768.6" clip-path="url(#terminal-3540602093-line-16)">&#160;___&#160;_&#160;__&#160;___&#160;&#160;&#160;___&#160;|&#160;|&#160;&#160;&#160;&#160;&#160;|&#160;|&#160;_(&#160;_&#160;)&#160;___&#160;&#160;&#160;&#160;&#160;&#160;|&#160;|&#160;__&#160;_|&#160;|__&#160;&#160;</text><text class="terminal-3540602093-r2" x="1061.4" y="410.4" textLength="12.2" clip-path="url(#terminal-3540602093-line-16)">
</text><text class="terminal-3540602093-r3" x="146.4" y="434.8" textLength="768.6" clip-path="url(#terminal-3540602093-line-17)">/&#160;__|&#160;&#x27;_&#160;`&#160;_&#160;\&#160;/&#160;_&#160;\|&#160;|_____|&#160;|/&#160;/&#160;_&#160;\/&#160;__|_____|&#160;|/&#160;_`&#160;|&#160;&#x27;_&#160;\&#160;</text><text class="terminal-3540602093-r2" x="1061.4" y="434.8" textLength="12.2" clip-path="url(#terminal-3540602093-line-17)">
</text><text class="terminal-3540602093-r3" x="146.4" y="459.2" textLength="768.6" clip-path="url(#terminal-3540602093-line-18)">\__&#160;\&#160;|&#160;|&#160;|&#160;|&#160;|&#160;(_)&#160;|&#160;|_____|&#160;&#160;&#160;&lt;&#160;(_)&#160;\__&#160;\_____|&#160;|&#160;(_|&#160;|&#160;|_)&#160;|</text><text class="terminal-3540602093-r2" x="1061.4" y="459.2" textLength="12.2" clip-path="url(#terminal-3540602093-line-18)">
</text><text class="terminal-3540602093-r3" x="146.4" y="483.6" textLength="768.6" clip-path="url(#terminal-3540602093-line-19)">|___/_|&#160;|_|&#160;|_|\___/|_|&#160;&#160;&#160;&#160;&#160;|_|\_\___/|___/&#160;&#160;&#160;&#160;&#160;|_|\__,_|_.__/&#160;</text><text class="terminal-3540602093-r2" x="1061.4" y="483.6" textLength="12.2" clip-path="url(#terminal-3540602093-line-19)">
</text><text class="terminal-3540602093-r2" x="1061.4" y="508" textLength="12.2" clip-path="url(#terminal-3540602093-line-20)">
</text><text class="terminal-3540602093-r2" x="1061.4" y="532.4" textLength="12.2" clip-path="url(#terminal-3540602093-line-21)">
</text><text class="terminal-3540602093-r2" x="1061.4" y="556.8" textLength="12.2" clip-path="url(#terminal-3540602093-line-22)">
</text><text class="terminal-3540602093-r4" x="109.8" y="581.2" textLength="12.2" clip-path="url(#terminal-3540602093-line-23)">╭</text><text class="terminal-3540602093-r4" x="122" y="581.2" textLength="146.4" clip-path="url(#terminal-3540602093-line-23)">────────────</text><text class="terminal-3540602093-r6" x="280.6" y="581.2" textLength="73.2" clip-path="url(#terminal-3540602093-line-23)">Create</text><text class="terminal-3540602093-r5" x="353.8" y="581.2" textLength="36.6" clip-path="url(#terminal-3540602093-line-23)">&#160;a&#160;</text><text class="terminal-3540602093-r7" x="390.4" y="581.2" textLength="36.6" clip-path="url(#terminal-3540602093-line-23)">new</text><text class="terminal-3540602093-r3" x="439.2" y="581.2" textLength="85.4" clip-path="url(#terminal-3540602093-line-23)">cluster</text><text class="terminal-3540602093-r5" x="524.6" y="581.2" textLength="256.2" clip-path="url(#terminal-3540602093-line-23)">&#160;with&#160;the&#160;name&#160;below&#160;</text><text class="terminal-3540602093-r4" x="780.8" y="581.2" textLength="158.6" clip-path="url(#terminal-3540602093-line-23)">─────────────</text><text class="terminal-3540602093-r4" x="939.4" y="581.2" textLength="12.2" clip-path="url(#terminal-3540602093-line-23)">╮</text><text class="terminal-3540602093-r2" x="1061.4" y="581.2" textLength="12.2" clip-path="url(#terminal-3540602093-line-23)">
</text><text class="terminal-3540602093-r4" x="109.8" y="605.6" textLength="12.2" clip-path="url(#terminal-3540602093-line-24)">│</text><text class="terminal-3540602093-r4" x="939.4" y="605.6" textLength="12.2" clip-path="url(#terminal-3540602093-line-24)">│</text><text class="terminal-3540602093-r2" x="1061.4" y="605.6" textLength="12.2" clip-path="url(#terminal-3540602093-line-24)">
</text><text class="terminal-3540602093-r4" x="109.8" y="630" textLength="12.2" clip-path="url(#terminal-3540602093-line-25)">│</text><text class="terminal-3540602093-r4" x="939.4" y="630" textLength="12.2" clip-path="url(#terminal-3540602093-line-25)">│</text><text class="terminal-3540602093-r2" x="1061.4" y="630" textLength="12.2" clip-path="url(#terminal-3540602093-line-25)">
</text><text class="terminal-3540602093-r4" x="109.8" y="654.4" textLength="12.2" clip-path="url(#terminal-3540602093-line-26)">│</text><text class="terminal-3540602093-r9" x="292.8" y="654.4" textLength="12.2" clip-path="url(#terminal-3540602093-line-26)">▊</text><text class="terminal-3540602093-r10" x="305" y="654.4" textLength="256.2" clip-path="url(#terminal-3540602093-line-26)">▔▔▔▔▔▔▔▔▔▔▔▔▔▔▔▔▔▔▔▔▔</text><text class="terminal-3540602093-r10" x="561.2" y="654.4" textLength="12.2" clip-path="url(#terminal-3540602093-line-26)">▎</text><text class="terminal-3540602093-r11" x="573.4" y="654.4" textLength="195.2" clip-path="url(#terminal-3540602093-line-26)">▔▔▔▔▔▔▔▔▔▔▔▔▔▔▔▔</text><text class="terminal-3540602093-r4" x="939.4" y="654.4" textLength="12.2" clip-path="url(#terminal-3540602093-line-26)">│</text><text class="terminal-3540602093-r2" x="1061.4" y="654.4" textLength="12.2" clip-path="url(#terminal-3540602093-line-26)">
</text><text class="terminal-3540602093-r4" x="109.8" y="678.8" textLength="12.2" clip-path="url(#terminal-3540602093-line-27)">│</text><text class="terminal-3540602093-r9" x="292.8" y="678.8" textLength="12.2" clip-path="url(#terminal-3540602093-line-27)">▊</text><text class="terminal-3540602093-r12" x="329.4" y="678.8" textLength="195.2" clip-path="url(#terminal-3540602093-line-27)">adorable-raccoon</text><text class="terminal-3540602093-r10" x="561.2" y="678.8" textLength="12.2" clip-path="url(#terminal-3540602093-line-27)">▎</text><text class="terminal-3540602093-r14" x="585.6" y="678.8" textLength="158.6" clip-path="url(#terminal-3540602093-line-27)">✨&#160;New&#160;Cluster</text><text class="terminal-3540602093-r4" x="939.4" y="678.8" textLength="12.2" clip-path="url(#terminal-3540602093-line-27)">│</text><text class="terminal-3540602093-r2" x="1061.4" y="678.8" textLength="12.2" clip-path="url(#terminal-3540602093-line-27)">
</text><text class="terminal-3540602093-r4" x="109.8" y="703.2" textLength="12.2" clip-path="url(#terminal-3540602093-line-28)">│</text><text class="terminal-3540602093-r9" x="292.8" y="703.2" textLength="12.2" clip-path="url(#terminal-3540602093-line-28)">▊</text><text class="terminal-3540602093-r10" x="305" y="703.2" textLength="256.2" clip-path="url(#terminal-3540602093-line-28)">▁▁▁▁▁▁▁▁▁▁▁▁▁▁▁▁▁▁▁▁▁</text><text class="terminal-3540602093-r10" x="561.2" y="703.2" textLength="12.2" clip-path="url(#terminal-3540602093-line-28)">▎</text><text class="terminal-3540602093-r15" x="573.4" y="703.2" textLength="195.2" clip-path="url(#terminal-3540602093-line-28)">▁▁▁▁▁▁▁▁▁▁▁▁▁▁▁▁</text><text class="terminal-3540602093-r4" x="939.4" y="703.2" textLength="12.2" clip-path="url(#terminal-3540602093-line-28)">│</text><text class="terminal-3540602093-r2" x="1061.4" y="703.2" textLength="12.2" clip-path="url(#terminal-3540602093-line-28)">
</text><text class="terminal-3540602093-r4" x="109.8" y="727.6" textLength="12.2" clip-path="url(#terminal-3540602093-line-29)">│</text><text class="terminal-3540602093-r4" x="939.4" y="727.6" textLength="12.2" clip-path="url(#terminal-3540602093-line-29)">│</text><text class="terminal-3540602093-r2" x="1061.4" y="727.6" textLength="12.2" clip-path="url(#terminal-3540602093-line-29)">
</text><text class="terminal-3540602093-r4" x="109.8" y="752" textLength="12.2" clip-path="url(#terminal-3540602093-line-30)">╰</text><text class="terminal-3540602093-r4" x="122" y="752" textLength="817.4" clip-path="url(#terminal-3540602093-line-30)">───────────────────────────────────────────────────────────────────</text><text class="terminal-3540602093-r4" x="939.4" y="752" textLength="12.2" clip-path="url(#terminal-3540602093-line-30)">╯</text><text class="terminal-3540602093-r2" x="1061.4" y="752" textLength="12.2" clip-path="url(#terminal-3540602093-line-30)">
</text><text class="terminal-3540602093-r2" x="1061.4" y="776.4" textLength="12.2" clip-path="url(#terminal-3540602093-line-31)">
</text><text class="terminal-3540602093-r2" x="1061.4" y="800.8" textLength="12.2" clip-path="url(#terminal-3540602093-line-32)">
</text><text class="terminal-3540602093-r2" x="1061.4" y="825.2" textLength="12.2" clip-path="url(#terminal-3540602093-line-33)">
</text><text class="terminal-3540602093-r2" x="1061.4" y="849.6" textLength="12.2" clip-path="url(#terminal-3540602093-line-34)">
</text><text class="terminal-3540602093-r2" x="1061.4" y="874" textLength="12.2" clip-path="url(#terminal-3540602093-line-35)">
</text><text class="terminal-3540602093-r2" x="1061.4" y="898.4" textLength="12.2" clip-path="url(#terminal-3540602093-line-36)">
</text><text class="terminal-3540602093-r2" x="1061.4" y="922.8" textLength="12.2" clip-path="url(#terminal-3540602093-line-37)">
</text><text class="terminal-3540602093-r2" x="1061.4" y="947.2" textLength="12.2" clip-path="url(#terminal-3540602093-line-38)">
</text><text class="terminal-3540602093-r2" x="1061.4" y="971.6" textLength="12.2" clip-path="url(#terminal-3540602093-line-39)">
</text><text class="terminal-3540602093-r2" x="1061.4" y="996" textLength="12.2" clip-path="url(#terminal-3540602093-line-40)">
</text><text class="terminal-3540602093-r2" x="1061.4" y="1020.4" textLength="12.2" clip-path="url(#terminal-3540602093-line-41)">
</text><text class="terminal-3540602093-r2" x="1061.4" y="1044.8" textLength="12.2" clip-path="url(#terminal-3540602093-line-42)">
</text><text class="terminal-3540602093-r2" x="1061.4" y="1069.2" textLength="12.2" clip-path="url(#terminal-3540602093-line-43)">
</text><text class="terminal-3540602093-r2" x="1061.4" y="1093.6" textLength="12.2" clip-path="url(#terminal-3540602093-line-44)">
</text><text class="terminal-3540602093-r2" x="1061.4" y="1118" textLength="12.2" clip-path="url(#terminal-3540602093-line-45)">
</text>
    </g>
    </g>
</svg>
